M48
; DRILL file {KiCad 9.0.2} date 2026-05-03T19:02:40-0500
; FORMAT={-:-/ absolute / metric / decimal}
; #@! TF.CreationDate,2026-05-03T19:02:40-05:00
; #@! TF.GenerationSoftware,Kicad,Pcbnew,9.0.2
; #@! TF.FileFunction,Plated,1,2,PTH
FMAT,2
METRIC
; #@! TA.AperFunction,Plated,PTH,ComponentDrill
T1C1.000
; #@! TA.AperFunction,Plated,PTH,ComponentDrill
T2C1.500
%
G90
G05
T1
X148.08Y-97.55
X150.62Y-97.55
X153.16Y-97.55
X155.7Y-97.55
X164.26Y-106.25
X164.26Y-121.5
X166.8Y-106.25
X166.8Y-121.5
X169.34Y-106.25
X169.34Y-121.5
X171.88Y-106.25
X171.88Y-121.5
X174.42Y-106.25
X174.42Y-121.5
X176.96Y-106.25
X176.96Y-121.5
X179.5Y-106.25
X179.5Y-121.5
T2
X127.61Y-130.96
X133.96Y-128.42
X148.11Y-130.96
X154.46Y-128.42
X168.61Y-130.96
X174.96Y-128.42
M30
