G04 #@! TF.GenerationSoftware,KiCad,Pcbnew,9.0.2*
G04 #@! TF.CreationDate,2026-05-03T19:03:47-05:00*
G04 #@! TF.ProjectId,pcbProject2,70636250-726f-46a6-9563-74322e6b6963,rev?*
G04 #@! TF.SameCoordinates,Original*
G04 #@! TF.FileFunction,Legend,Top*
G04 #@! TF.FilePolarity,Positive*
%FSLAX46Y46*%
G04 Gerber Fmt 4.6, Leading zero omitted, Abs format (unit mm)*
G04 Created by KiCad (PCBNEW 9.0.2) date 2026-05-03 19:03:47*
%MOMM*%
%LPD*%
G01*
G04 APERTURE LIST*
%ADD10C,0.300000*%
%ADD11C,0.150000*%
%ADD12C,0.120000*%
G04 APERTURE END LIST*
D10*
X123411653Y-104117257D02*
X123411653Y-101117257D01*
X125125939Y-104117257D02*
X123840225Y-102402971D01*
X125125939Y-101117257D02*
X123411653Y-102831542D01*
X128125939Y-104117257D02*
X127125939Y-102688685D01*
X126411653Y-104117257D02*
X126411653Y-101117257D01*
X126411653Y-101117257D02*
X127554510Y-101117257D01*
X127554510Y-101117257D02*
X127840225Y-101260114D01*
X127840225Y-101260114D02*
X127983082Y-101402971D01*
X127983082Y-101402971D02*
X128125939Y-101688685D01*
X128125939Y-101688685D02*
X128125939Y-102117257D01*
X128125939Y-102117257D02*
X127983082Y-102402971D01*
X127983082Y-102402971D02*
X127840225Y-102545828D01*
X127840225Y-102545828D02*
X127554510Y-102688685D01*
X127554510Y-102688685D02*
X126411653Y-102688685D01*
X129411653Y-104117257D02*
X129411653Y-101117257D01*
X130697367Y-103974400D02*
X131125939Y-104117257D01*
X131125939Y-104117257D02*
X131840224Y-104117257D01*
X131840224Y-104117257D02*
X132125939Y-103974400D01*
X132125939Y-103974400D02*
X132268796Y-103831542D01*
X132268796Y-103831542D02*
X132411653Y-103545828D01*
X132411653Y-103545828D02*
X132411653Y-103260114D01*
X132411653Y-103260114D02*
X132268796Y-102974400D01*
X132268796Y-102974400D02*
X132125939Y-102831542D01*
X132125939Y-102831542D02*
X131840224Y-102688685D01*
X131840224Y-102688685D02*
X131268796Y-102545828D01*
X131268796Y-102545828D02*
X130983081Y-102402971D01*
X130983081Y-102402971D02*
X130840224Y-102260114D01*
X130840224Y-102260114D02*
X130697367Y-101974400D01*
X130697367Y-101974400D02*
X130697367Y-101688685D01*
X130697367Y-101688685D02*
X130840224Y-101402971D01*
X130840224Y-101402971D02*
X130983081Y-101260114D01*
X130983081Y-101260114D02*
X131268796Y-101117257D01*
X131268796Y-101117257D02*
X131983081Y-101117257D01*
X131983081Y-101117257D02*
X132411653Y-101260114D01*
X133697367Y-104117257D02*
X133697367Y-101117257D01*
X133697367Y-102545828D02*
X135411653Y-102545828D01*
X135411653Y-104117257D02*
X135411653Y-101117257D01*
X123411653Y-112117257D02*
X123411653Y-109117257D01*
X123411653Y-109117257D02*
X124554510Y-109117257D01*
X124554510Y-109117257D02*
X124840225Y-109260114D01*
X124840225Y-109260114D02*
X124983082Y-109402971D01*
X124983082Y-109402971D02*
X125125939Y-109688685D01*
X125125939Y-109688685D02*
X125125939Y-110117257D01*
X125125939Y-110117257D02*
X124983082Y-110402971D01*
X124983082Y-110402971D02*
X124840225Y-110545828D01*
X124840225Y-110545828D02*
X124554510Y-110688685D01*
X124554510Y-110688685D02*
X123411653Y-110688685D01*
X126268796Y-111260114D02*
X127697368Y-111260114D01*
X125983082Y-112117257D02*
X126983082Y-109117257D01*
X126983082Y-109117257D02*
X127983082Y-112117257D01*
X128983082Y-112117257D02*
X128983082Y-109117257D01*
X128983082Y-109117257D02*
X129697368Y-109117257D01*
X129697368Y-109117257D02*
X130125939Y-109260114D01*
X130125939Y-109260114D02*
X130411654Y-109545828D01*
X130411654Y-109545828D02*
X130554511Y-109831542D01*
X130554511Y-109831542D02*
X130697368Y-110402971D01*
X130697368Y-110402971D02*
X130697368Y-110831542D01*
X130697368Y-110831542D02*
X130554511Y-111402971D01*
X130554511Y-111402971D02*
X130411654Y-111688685D01*
X130411654Y-111688685D02*
X130125939Y-111974400D01*
X130125939Y-111974400D02*
X129697368Y-112117257D01*
X129697368Y-112117257D02*
X128983082Y-112117257D01*
D11*
X131026485Y-117306077D02*
X130836009Y-117496554D01*
X130836009Y-117496554D02*
X130264580Y-117877506D01*
X130264580Y-117877506D02*
X129883628Y-118067982D01*
X129883628Y-118067982D02*
X129312200Y-118258458D01*
X129312200Y-118258458D02*
X128359819Y-118448935D01*
X128359819Y-118448935D02*
X127597914Y-118448935D01*
X127597914Y-118448935D02*
X126645533Y-118258458D01*
X126645533Y-118258458D02*
X126074104Y-118067982D01*
X126074104Y-118067982D02*
X125693152Y-117877506D01*
X125693152Y-117877506D02*
X125121723Y-117496554D01*
X125121723Y-117496554D02*
X124931247Y-117306077D01*
X129121723Y-115782268D02*
X129312200Y-115591791D01*
X129312200Y-115591791D02*
X129502676Y-115782268D01*
X129502676Y-115782268D02*
X129312200Y-115972744D01*
X129312200Y-115972744D02*
X129121723Y-115782268D01*
X129121723Y-115782268D02*
X129502676Y-115782268D01*
X127026485Y-115782268D02*
X127216961Y-115591791D01*
X127216961Y-115591791D02*
X127407438Y-115782268D01*
X127407438Y-115782268D02*
X127216961Y-115972744D01*
X127216961Y-115972744D02*
X127026485Y-115782268D01*
X127026485Y-115782268D02*
X127407438Y-115782268D01*
X130086667Y-126033200D02*
X130229524Y-126080819D01*
X130229524Y-126080819D02*
X130467619Y-126080819D01*
X130467619Y-126080819D02*
X130562857Y-126033200D01*
X130562857Y-126033200D02*
X130610476Y-125985580D01*
X130610476Y-125985580D02*
X130658095Y-125890342D01*
X130658095Y-125890342D02*
X130658095Y-125795104D01*
X130658095Y-125795104D02*
X130610476Y-125699866D01*
X130610476Y-125699866D02*
X130562857Y-125652247D01*
X130562857Y-125652247D02*
X130467619Y-125604628D01*
X130467619Y-125604628D02*
X130277143Y-125557009D01*
X130277143Y-125557009D02*
X130181905Y-125509390D01*
X130181905Y-125509390D02*
X130134286Y-125461771D01*
X130134286Y-125461771D02*
X130086667Y-125366533D01*
X130086667Y-125366533D02*
X130086667Y-125271295D01*
X130086667Y-125271295D02*
X130134286Y-125176057D01*
X130134286Y-125176057D02*
X130181905Y-125128438D01*
X130181905Y-125128438D02*
X130277143Y-125080819D01*
X130277143Y-125080819D02*
X130515238Y-125080819D01*
X130515238Y-125080819D02*
X130658095Y-125128438D01*
X130991429Y-125080819D02*
X131229524Y-126080819D01*
X131229524Y-126080819D02*
X131420000Y-125366533D01*
X131420000Y-125366533D02*
X131610476Y-126080819D01*
X131610476Y-126080819D02*
X131848572Y-125080819D01*
X132753333Y-126080819D02*
X132181905Y-126080819D01*
X132467619Y-126080819D02*
X132467619Y-125080819D01*
X132467619Y-125080819D02*
X132372381Y-125223676D01*
X132372381Y-125223676D02*
X132277143Y-125318914D01*
X132277143Y-125318914D02*
X132181905Y-125366533D01*
X171086667Y-126033200D02*
X171229524Y-126080819D01*
X171229524Y-126080819D02*
X171467619Y-126080819D01*
X171467619Y-126080819D02*
X171562857Y-126033200D01*
X171562857Y-126033200D02*
X171610476Y-125985580D01*
X171610476Y-125985580D02*
X171658095Y-125890342D01*
X171658095Y-125890342D02*
X171658095Y-125795104D01*
X171658095Y-125795104D02*
X171610476Y-125699866D01*
X171610476Y-125699866D02*
X171562857Y-125652247D01*
X171562857Y-125652247D02*
X171467619Y-125604628D01*
X171467619Y-125604628D02*
X171277143Y-125557009D01*
X171277143Y-125557009D02*
X171181905Y-125509390D01*
X171181905Y-125509390D02*
X171134286Y-125461771D01*
X171134286Y-125461771D02*
X171086667Y-125366533D01*
X171086667Y-125366533D02*
X171086667Y-125271295D01*
X171086667Y-125271295D02*
X171134286Y-125176057D01*
X171134286Y-125176057D02*
X171181905Y-125128438D01*
X171181905Y-125128438D02*
X171277143Y-125080819D01*
X171277143Y-125080819D02*
X171515238Y-125080819D01*
X171515238Y-125080819D02*
X171658095Y-125128438D01*
X171991429Y-125080819D02*
X172229524Y-126080819D01*
X172229524Y-126080819D02*
X172420000Y-125366533D01*
X172420000Y-125366533D02*
X172610476Y-126080819D01*
X172610476Y-126080819D02*
X172848572Y-125080819D01*
X173134286Y-125080819D02*
X173753333Y-125080819D01*
X173753333Y-125080819D02*
X173420000Y-125461771D01*
X173420000Y-125461771D02*
X173562857Y-125461771D01*
X173562857Y-125461771D02*
X173658095Y-125509390D01*
X173658095Y-125509390D02*
X173705714Y-125557009D01*
X173705714Y-125557009D02*
X173753333Y-125652247D01*
X173753333Y-125652247D02*
X173753333Y-125890342D01*
X173753333Y-125890342D02*
X173705714Y-125985580D01*
X173705714Y-125985580D02*
X173658095Y-126033200D01*
X173658095Y-126033200D02*
X173562857Y-126080819D01*
X173562857Y-126080819D02*
X173277143Y-126080819D01*
X173277143Y-126080819D02*
X173181905Y-126033200D01*
X173181905Y-126033200D02*
X173134286Y-125985580D01*
X150533333Y-108335009D02*
X150676190Y-108382628D01*
X150676190Y-108382628D02*
X150723809Y-108430247D01*
X150723809Y-108430247D02*
X150771428Y-108525485D01*
X150771428Y-108525485D02*
X150771428Y-108668342D01*
X150771428Y-108668342D02*
X150723809Y-108763580D01*
X150723809Y-108763580D02*
X150676190Y-108811200D01*
X150676190Y-108811200D02*
X150580952Y-108858819D01*
X150580952Y-108858819D02*
X150200000Y-108858819D01*
X150200000Y-108858819D02*
X150200000Y-107858819D01*
X150200000Y-107858819D02*
X150533333Y-107858819D01*
X150533333Y-107858819D02*
X150628571Y-107906438D01*
X150628571Y-107906438D02*
X150676190Y-107954057D01*
X150676190Y-107954057D02*
X150723809Y-108049295D01*
X150723809Y-108049295D02*
X150723809Y-108144533D01*
X150723809Y-108144533D02*
X150676190Y-108239771D01*
X150676190Y-108239771D02*
X150628571Y-108287390D01*
X150628571Y-108287390D02*
X150533333Y-108335009D01*
X150533333Y-108335009D02*
X150200000Y-108335009D01*
X151200000Y-108858819D02*
X151200000Y-108192152D01*
X151200000Y-108382628D02*
X151247619Y-108287390D01*
X151247619Y-108287390D02*
X151295238Y-108239771D01*
X151295238Y-108239771D02*
X151390476Y-108192152D01*
X151390476Y-108192152D02*
X151485714Y-108192152D01*
X152247619Y-108858819D02*
X152247619Y-107858819D01*
X152247619Y-108811200D02*
X152152381Y-108858819D01*
X152152381Y-108858819D02*
X151961905Y-108858819D01*
X151961905Y-108858819D02*
X151866667Y-108811200D01*
X151866667Y-108811200D02*
X151819048Y-108763580D01*
X151819048Y-108763580D02*
X151771429Y-108668342D01*
X151771429Y-108668342D02*
X151771429Y-108382628D01*
X151771429Y-108382628D02*
X151819048Y-108287390D01*
X151819048Y-108287390D02*
X151866667Y-108239771D01*
X151866667Y-108239771D02*
X151961905Y-108192152D01*
X151961905Y-108192152D02*
X152152381Y-108192152D01*
X152152381Y-108192152D02*
X152247619Y-108239771D01*
X153247619Y-108858819D02*
X152676191Y-108858819D01*
X152961905Y-108858819D02*
X152961905Y-107858819D01*
X152961905Y-107858819D02*
X152866667Y-108001676D01*
X152866667Y-108001676D02*
X152771429Y-108096914D01*
X152771429Y-108096914D02*
X152676191Y-108144533D01*
X150586667Y-126033200D02*
X150729524Y-126080819D01*
X150729524Y-126080819D02*
X150967619Y-126080819D01*
X150967619Y-126080819D02*
X151062857Y-126033200D01*
X151062857Y-126033200D02*
X151110476Y-125985580D01*
X151110476Y-125985580D02*
X151158095Y-125890342D01*
X151158095Y-125890342D02*
X151158095Y-125795104D01*
X151158095Y-125795104D02*
X151110476Y-125699866D01*
X151110476Y-125699866D02*
X151062857Y-125652247D01*
X151062857Y-125652247D02*
X150967619Y-125604628D01*
X150967619Y-125604628D02*
X150777143Y-125557009D01*
X150777143Y-125557009D02*
X150681905Y-125509390D01*
X150681905Y-125509390D02*
X150634286Y-125461771D01*
X150634286Y-125461771D02*
X150586667Y-125366533D01*
X150586667Y-125366533D02*
X150586667Y-125271295D01*
X150586667Y-125271295D02*
X150634286Y-125176057D01*
X150634286Y-125176057D02*
X150681905Y-125128438D01*
X150681905Y-125128438D02*
X150777143Y-125080819D01*
X150777143Y-125080819D02*
X151015238Y-125080819D01*
X151015238Y-125080819D02*
X151158095Y-125128438D01*
X151491429Y-125080819D02*
X151729524Y-126080819D01*
X151729524Y-126080819D02*
X151920000Y-125366533D01*
X151920000Y-125366533D02*
X152110476Y-126080819D01*
X152110476Y-126080819D02*
X152348572Y-125080819D01*
X152681905Y-125176057D02*
X152729524Y-125128438D01*
X152729524Y-125128438D02*
X152824762Y-125080819D01*
X152824762Y-125080819D02*
X153062857Y-125080819D01*
X153062857Y-125080819D02*
X153158095Y-125128438D01*
X153158095Y-125128438D02*
X153205714Y-125176057D01*
X153205714Y-125176057D02*
X153253333Y-125271295D01*
X153253333Y-125271295D02*
X153253333Y-125366533D01*
X153253333Y-125366533D02*
X153205714Y-125509390D01*
X153205714Y-125509390D02*
X152634286Y-126080819D01*
X152634286Y-126080819D02*
X153253333Y-126080819D01*
D12*
X124435000Y-126515000D02*
X138405000Y-126515000D01*
X124435000Y-140485000D02*
X124435000Y-126515000D01*
X138405000Y-126515000D02*
X138405000Y-140485000D01*
X138405000Y-140485000D02*
X124435000Y-140485000D01*
X165435000Y-126515000D02*
X179405000Y-126515000D01*
X165435000Y-140485000D02*
X165435000Y-126515000D01*
X179405000Y-126515000D02*
X179405000Y-140485000D01*
X179405000Y-140485000D02*
X165435000Y-140485000D01*
X138300000Y-95850000D02*
X165700000Y-95850000D01*
X138300000Y-123150000D02*
X138300000Y-95850000D01*
X138722000Y-99145000D02*
X161822000Y-99145000D01*
X138722000Y-115745000D02*
X138722000Y-99145000D01*
X147001000Y-96339000D02*
X147001000Y-98752000D01*
X147001000Y-96339000D02*
X156780000Y-96339000D01*
X156780000Y-96339000D02*
X156780000Y-98752000D01*
X156780000Y-98752000D02*
X147001000Y-98752000D01*
X161822000Y-99145000D02*
X164908000Y-99145000D01*
X161822000Y-115745000D02*
X138722000Y-115745000D01*
X161822000Y-115745000D02*
X165162000Y-115770000D01*
X165162000Y-99133000D02*
X164908000Y-99145000D01*
X165162000Y-115770000D02*
X165162000Y-99133000D01*
X165700000Y-95850000D02*
X165700000Y-123150000D01*
X165700000Y-123150000D02*
X138300000Y-123150000D01*
X144935000Y-126515000D02*
X158905000Y-126515000D01*
X144935000Y-140485000D02*
X144935000Y-126515000D01*
X158905000Y-126515000D02*
X158905000Y-140485000D01*
X158905000Y-140485000D02*
X144935000Y-140485000D01*
M02*
