G04 #@! TF.GenerationSoftware,KiCad,Pcbnew,9.0.2*
G04 #@! TF.CreationDate,2026-05-03T19:03:47-05:00*
G04 #@! TF.ProjectId,pcbProject2,70636250-726f-46a6-9563-74322e6b6963,rev?*
G04 #@! TF.SameCoordinates,Original*
G04 #@! TF.FileFunction,Copper,L2,Bot*
G04 #@! TF.FilePolarity,Positive*
%FSLAX46Y46*%
G04 Gerber Fmt 4.6, Leading zero omitted, Abs format (unit mm)*
G04 Created by KiCad (PCBNEW 9.0.2) date 2026-05-03 19:03:47*
%MOMM*%
%LPD*%
G01*
G04 APERTURE LIST*
G04 #@! TA.AperFunction,ComponentPad*
%ADD10C,2.200000*%
G04 #@! TD*
G04 #@! TA.AperFunction,ComponentPad*
%ADD11O,1.600000X2.000000*%
G04 #@! TD*
G04 #@! TA.AperFunction,ComponentPad*
%ADD12R,1.700000X1.700000*%
G04 #@! TD*
G04 #@! TA.AperFunction,ComponentPad*
%ADD13C,1.700000*%
G04 #@! TD*
G04 #@! TA.AperFunction,Conductor*
%ADD14C,0.200000*%
G04 #@! TD*
G04 APERTURE END LIST*
D10*
X133960000Y-128420000D03*
X127610000Y-130960000D03*
X174960000Y-128420000D03*
X168610000Y-130960000D03*
D11*
X148080000Y-97550000D03*
X150620000Y-97550000D03*
X153160000Y-97550000D03*
X155700000Y-97550000D03*
D10*
X154460000Y-128420000D03*
X148110000Y-130960000D03*
D12*
X179500000Y-121500000D03*
D13*
X176960000Y-121500000D03*
X174420000Y-121500000D03*
X171880000Y-121500000D03*
X169340000Y-121500000D03*
X166800000Y-121500000D03*
X164260000Y-121500000D03*
X164260000Y-106250000D03*
X166800000Y-106250000D03*
X169340000Y-106250000D03*
X171880000Y-106250000D03*
X174420000Y-106250000D03*
X176960000Y-106250000D03*
X179500000Y-106250000D03*
D14*
X138040000Y-130960000D02*
X143000000Y-126000000D01*
X172420000Y-123500000D02*
X174420000Y-121500000D01*
X143000000Y-126000000D02*
X168000000Y-126000000D01*
X127610000Y-130960000D02*
X138040000Y-130960000D01*
X170500000Y-123500000D02*
X172420000Y-123500000D01*
X168000000Y-126000000D02*
X170500000Y-123500000D01*
X173570000Y-126000000D02*
X175000000Y-126000000D01*
X175000000Y-126000000D02*
X179500000Y-121500000D01*
X168610000Y-130960000D02*
X173570000Y-126000000D01*
X155700000Y-97550000D02*
X155700000Y-107860000D01*
X155700000Y-107860000D02*
X169340000Y-121500000D01*
X148110000Y-130960000D02*
X164540000Y-130960000D01*
X164540000Y-130960000D02*
X170500000Y-125000000D01*
X170500000Y-125000000D02*
X173460000Y-125000000D01*
X173460000Y-125000000D02*
X176960000Y-121500000D01*
X153160000Y-107860000D02*
X166800000Y-121500000D01*
X153160000Y-97550000D02*
X153160000Y-107860000D01*
M02*
