ISO-10303-21;
HEADER;
FILE_DESCRIPTION (( 'STEP AP203' ),
    '1' );
FILE_NAME ('bottomLid.STEP',
    '2026-05-03T23:56:07',
    ( '' ),
    ( '' ),
    'SwSTEP 2.0',
    'SolidWorks 2025',
    '' );
FILE_SCHEMA (( 'CONFIG_CONTROL_DESIGN' ));
ENDSEC;

DATA;
#1 = APPROVAL_STATUS ( 'not_yet_approved' ) ;
#2 = LINE ( 'NONE', #744, #383 ) ;
#3 = DIRECTION ( 'NONE',  ( 0.000000000000000000, 1.000000000000000000, -0.000000000000000000 ) ) ;
#4 = CIRCLE ( 'NONE', #658, 0.08267716535433089486 ) ;
#5 = ORIENTED_EDGE ( 'NONE', *, *, #409, .T. ) ;
#6 = DIRECTION ( 'NONE',  ( -1.000000000000000000, 0.000000000000000000, 0.000000000000000000 ) ) ;
#7 = VECTOR ( 'NONE', #29, 39.37007874015748143 ) ;
#8 = DIRECTION ( 'NONE',  ( -2.185478394931410575E-16, 0.000000000000000000, -1.000000000000000000 ) ) ;
#9 = VERTEX_POINT ( 'NONE', #722 ) ;
#10 = APPROVAL ( #1, 'UNSPECIFIED' ) ;
#11 = FACE_OUTER_BOUND ( 'NONE', #648, .T. ) ;
#12 = DIRECTION ( 'NONE',  ( 1.000000000000000000, 0.000000000000000000, 1.365923996832130870E-16 ) ) ;
#13 = VERTEX_POINT ( 'NONE', #592 ) ;
#14 = EDGE_CURVE ( 'NONE', #476, #487, #37, .T. ) ;
#15 = DIRECTION ( 'NONE',  ( 1.000000000000000000, 0.000000000000000000, -1.231570816815856252E-16 ) ) ;
#16 = CARTESIAN_POINT ( 'NONE',  ( -0.1250000000000008049, 0.3999999999999996891, 0.1625951981412164238 ) ) ;
#17 = VERTEX_POINT ( 'NONE', #294 ) ;
#18 = CARTESIAN_POINT ( 'NONE',  ( -0.2500000000000008327, -0.1000000000000000056, -2.295081967213114638 ) ) ;
#19 = DIRECTION ( 'NONE',  ( -1.000000000000000000, 0.000000000000000000, -4.097771990496395321E-16 ) ) ;
#20 = ORIENTED_EDGE ( 'NONE', *, *, #675, .T. ) ;
#21 = FACE_OUTER_BOUND ( 'NONE', #192, .T. ) ;
#22 = CARTESIAN_POINT ( 'NONE',  ( 2.800000000000000266, 0.3999999999999996891, -0.1912033841260781242 ) ) ;
#23 = EDGE_CURVE ( 'NONE', #80, #100, #717, .T. ) ;
#24 = ORIENTED_EDGE ( 'NONE', *, *, #43, .F. ) ;
#25 = CARTESIAN_POINT ( 'NONE',  ( -0.1250000000000008049, 0.3999999999999996891, 0.07991803278688570933 ) ) ;
#26 = DIRECTION ( 'NONE',  ( -1.000000000000000000, 0.000000000000000000, 0.000000000000000000 ) ) ;
#27 = ORIENTED_EDGE ( 'NONE', *, *, #154, .T. ) ;
#28 = CARTESIAN_POINT ( 'NONE',  ( 1.800000000000000266, 0.000000000000000000, -1.191203384126078291 ) ) ;
#29 = DIRECTION ( 'NONE',  ( -0.000000000000000000, -1.000000000000000000, -0.000000000000000000 ) ) ;
#30 = ORIENTED_EDGE ( 'NONE', *, *, #400, .T. ) ;
#31 = EDGE_CURVE ( 'NONE', #691, #196, #106, .T. ) ;
#32 = CARTESIAN_POINT ( 'NONE',  ( 0.000000000000000000, -0.1000000000000000056, -2.000000000000000000 ) ) ;
#33 = CIRCLE ( 'NONE', #419, 0.08267716535433089486 ) ;
#34 = ORIENTED_EDGE ( 'NONE', *, *, #377, .F. ) ;
#35 = SECURITY_CLASSIFICATION_LEVEL ( 'unclassified' ) ;
#36 = DIRECTION ( 'NONE',  ( 0.000000000000000000, 1.000000000000000000, 0.000000000000000000 ) ) ;
#37 = LINE ( 'NONE', #290, #140 ) ;
#38 = PERSON_AND_ORGANIZATION ( #132, #595 ) ;
#39 = CARTESIAN_POINT ( 'NONE',  ( -0.1250000000000008049, -0.1000000000000000056, 0.07991803278688570933 ) ) ;
#40 = LINE ( 'NONE', #16, #453 ) ;
#41 = PRODUCT ( 'bottomLid', 'bottomLid', '', ( #296 ) ) ;
#42 = CARTESIAN_POINT ( 'NONE',  ( 2.799999999999998934, -0.1000000000000000056, -2.295081967213114638 ) ) ;
#43 = EDGE_CURVE ( 'NONE', #332, #151, #416, .T. ) ;
#44 = EDGE_LOOP ( 'NONE', ( #478, #564 ) ) ;
#45 = COORDINATED_UNIVERSAL_TIME_OFFSET ( 6, 0, .BEHIND. ) ;
#46 = PLANE ( 'NONE',  #482 ) ;
#47 = EDGE_LOOP ( 'NONE', ( #210, #770, #73, #143 ) ) ;
#48 = CARTESIAN_POINT ( 'NONE',  ( 0.000000000000000000, -0.1000000000000000056, 0.000000000000000000 ) ) ;
#49 = EDGE_LOOP ( 'NONE', ( #718, #510 ) ) ;
#50 = PERSON_AND_ORGANIZATION ( #132, #595 ) ;
#51 = CYLINDRICAL_SURFACE ( 'NONE', #279, 0.08267716535433061731 ) ;
#52 = DIRECTION ( 'NONE',  ( 0.000000000000000000, 1.000000000000000000, -0.000000000000000000 ) ) ;
#53 = ORIENTED_EDGE ( 'NONE', *, *, #86, .T. ) ;
#54 = VECTOR ( 'NONE', #26, 39.37007874015748143 ) ;
#55 = ADVANCED_FACE ( 'NONE', ( #57 ), #555, .F. ) ;
#56 = CARTESIAN_POINT ( 'NONE',  ( 2.675000000000000266, -0.1000000000000000056, -2.170081967213114638 ) ) ;
#57 = FACE_OUTER_BOUND ( 'NONE', #337, .T. ) ;
#58 = EDGE_LOOP ( 'NONE', ( #270, #343 ) ) ;
#59 = DIRECTION ( 'NONE',  ( -0.000000000000000000, -1.000000000000000000, -0.000000000000000000 ) ) ;
#60 = LINE ( 'NONE', #382, #136 ) ;
#61 = ADVANCED_FACE ( 'NONE', ( #119 ), #198, .F. ) ;
#62 = CC_DESIGN_APPROVAL ( #492, ( #271 ) ) ;
#63 = ORIENTED_EDGE ( 'NONE', *, *, #414, .T. ) ;
#64 = CC_DESIGN_SECURITY_CLASSIFICATION ( #515, ( #559 ) ) ;
#65 = FACE_OUTER_BOUND ( 'NONE', #602, .T. ) ;
#66 = CARTESIAN_POINT ( 'NONE',  ( 2.800000000000000266, 0.3999999999999996891, -0.1912033841260781242 ) ) ;
#67 = EDGE_CURVE ( 'NONE', #233, #713, #545, .T. ) ;
#68 = ORIENTED_EDGE ( 'NONE', *, *, #264, .T. ) ;
#69 = VECTOR ( 'NONE', #670, 39.37007874015748143 ) ;
#70 = AXIS2_PLACEMENT_3D ( 'NONE', #133, #306, #430 ) ;
#71 = FACE_OUTER_BOUND ( 'NONE', #311, .T. ) ;
#72 = DIRECTION ( 'NONE',  ( -1.000000000000000000, 0.000000000000000000, -5.463695987328526437E-16 ) ) ;
#73 = ORIENTED_EDGE ( 'NONE', *, *, #121, .T. ) ;
#74 = CARTESIAN_POINT ( 'NONE',  ( 2.675000000000000266, 0.3999999999999996891, -2.170081967213114638 ) ) ;
#75 = DIRECTION ( 'NONE',  ( 0.000000000000000000, 0.000000000000000000, -1.000000000000000000 ) ) ;
#76 = ORIENTED_EDGE ( 'NONE', *, *, #318, .F. ) ;
#77 = EDGE_CURVE ( 'NONE', #189, #370, #426, .T. ) ;
#78 = CYLINDRICAL_SURFACE ( 'NONE', #217, 0.08267716535433072833 ) ;
#79 = CARTESIAN_POINT ( 'NONE',  ( -0.1250000000000009714, 0.2500000000000000000, -2.087404801858784076 ) ) ;
#80 = VERTEX_POINT ( 'NONE', #673 ) ;
#81 = CARTESIAN_POINT ( 'NONE',  ( 2.523710690196430868E-17, 0.2500000000000000000, 0.2049180327868855567 ) ) ;
#82 = DIRECTION ( 'NONE',  ( 1.000000000000000000, -0.000000000000000000, 0.000000000000000000 ) ) ;
#83 = ORIENTED_EDGE ( 'NONE', *, *, #117, .T. ) ;
#84 = DIRECTION ( 'NONE',  ( 1.229331597148918448E-16, 0.000000000000000000, 1.000000000000000000 ) ) ;
#85 = LINE ( 'NONE', #214, #7 ) ;
#86 = EDGE_CURVE ( 'NONE', #713, #233, #113, .T. ) ;
#87 = EDGE_LOOP ( 'NONE', ( #120, #664, #20, #422 ) ) ;
#88 = ADVANCED_FACE ( 'NONE', ( #364 ), #123, .F. ) ;
#89 =( NAMED_UNIT ( * ) SI_UNIT ( $, .STERADIAN. ) SOLID_ANGLE_UNIT ( ) );
#90 = CARTESIAN_POINT ( 'NONE',  ( -0.2500000000000008327, -0.1000000000000000056, -2.295081967213114638 ) ) ;
#91 = VERTEX_POINT ( 'NONE', #314 ) ;
#92 = ADVANCED_FACE ( 'NONE', ( #249 ), #495, .T. ) ;
#93 = APPROVAL_DATE_TIME ( #168, #745 ) ;
#94 = CARTESIAN_POINT ( 'NONE',  ( 2.800000000000000266, 0.3999999999999996891, -1.191203384126077847 ) ) ;
#95 = VECTOR ( 'NONE', #201, 39.37007874015748143 ) ;
#96 = VECTOR ( 'NONE', #535, 39.37007874015748143 ) ;
#97 = ORIENTED_EDGE ( 'NONE', *, *, #126, .T. ) ;
#98 = CARTESIAN_POINT ( 'NONE',  ( 2.549999999999999822, -0.1000000000000000056, -2.000000000000000000 ) ) ;
#99 = ORIENTED_EDGE ( 'NONE', *, *, #460, .T. ) ;
#100 = VERTEX_POINT ( 'NONE', #498 ) ;
#101 =( NAMED_UNIT ( * ) PLANE_ANGLE_UNIT ( ) SI_UNIT ( $, .RADIAN. ) );
#102 = VECTOR ( 'NONE', #164, 39.37007874015748143 ) ;
#103 = AXIS2_PLACEMENT_3D ( 'NONE', #149, #393, #260 ) ;
#104 = EDGE_CURVE ( 'NONE', #674, #332, #183, .T. ) ;
#105 = DIRECTION ( 'NONE',  ( -2.185478394931410821E-16, -0.000000000000000000, -1.000000000000000000 ) ) ;
#106 = LINE ( 'NONE', #354, #96 ) ;
#107 = VECTOR ( 'NONE', #186, 39.37007874015748143 ) ;
#108 = CC_DESIGN_APPROVAL ( #745, ( #559 ) ) ;
#109 = COORDINATED_UNIVERSAL_TIME_OFFSET ( 6, 0, .BEHIND. ) ;
#110 = CARTESIAN_POINT ( 'NONE',  ( 0.000000000000000000, -0.1000000000000000056, -2.000000000000000000 ) ) ;
#111 = VECTOR ( 'NONE', #308, 39.37007874015748143 ) ;
#112 = ORIENTED_EDGE ( 'NONE', *, *, #668, .T. ) ;
#113 = CIRCLE ( 'NONE', #563, 0.08267716535433072833 ) ;
#114 = ORIENTED_EDGE ( 'NONE', *, *, #206, .T. ) ;
#115 = CARTESIAN_POINT ( 'NONE',  ( 2.549999999999999822, -0.1000000000000000056, -0.1912033841260781519 ) ) ;
#116 = VERTEX_POINT ( 'NONE', #137 ) ;
#117 = EDGE_CURVE ( 'NONE', #370, #476, #738, .T. ) ;
#118 = CARTESIAN_POINT ( 'NONE',  ( 1.800000000000000266, 0.3999999999999996891, -1.191203384126078291 ) ) ;
#119 = FACE_OUTER_BOUND ( 'NONE', #698, .T. ) ;
#120 = ORIENTED_EDGE ( 'NONE', *, *, #322, .T. ) ;
#121 = EDGE_CURVE ( 'NONE', #189, #487, #438, .T. ) ;
#122 = CARTESIAN_POINT ( 'NONE',  ( -0.2500000000000008327, 0.2500000000000000000, -2.295081967213114638 ) ) ;
#123 = PLANE ( 'NONE',  #521 ) ;
#124 = ORIENTED_EDGE ( 'NONE', *, *, #460, .F. ) ;
#125 = DATE_AND_TIME ( #483, #518 ) ;
#126 = EDGE_CURVE ( 'NONE', #456, #431, #60, .T. ) ;
#127 = DIRECTION ( 'NONE',  ( 0.000000000000000000, 0.000000000000000000, -1.000000000000000000 ) ) ;
#128 = EDGE_CURVE ( 'NONE', #17, #646, #310, .T. ) ;
#129 = DIRECTION ( 'NONE',  ( -5.463695987328526437E-16, 0.000000000000000000, 1.000000000000000000 ) ) ;
#130 = ORIENTED_EDGE ( 'NONE', *, *, #608, .T. ) ;
#131 = LINE ( 'NONE', #484, #181 ) ;
#132 = PERSON ( 'UNSPECIFIED', 'UNSPECIFIED', 'UNSPECIFIED', ('UNSPECIFIED'), ('UNSPECIFIED'), ('UNSPECIFIED') ) ;
#133 = CARTESIAN_POINT ( 'NONE',  ( -0.1250000000000008049, 0.2500000000000000000, 0.07991803278688570933 ) ) ;
#134 = EDGE_LOOP ( 'NONE', ( #278, #441, #307, #76 ) ) ;
#135 = DIRECTION ( 'NONE',  ( 1.000000000000000000, -0.000000000000000000, 4.097771990496395321E-16 ) ) ;
#136 = VECTOR ( 'NONE', #546, 39.37007874015748143 ) ;
#137 = CARTESIAN_POINT ( 'NONE',  ( 2.549999999999999822, -0.1000000000000000056, -2.000000000000000000 ) ) ;
#138 = ORIENTED_EDGE ( 'NONE', *, *, #158, .F. ) ;
#139 = AXIS2_PLACEMENT_3D ( 'NONE', #272, #153, #386 ) ;
#140 = VECTOR ( 'NONE', #528, 39.37007874015748143 ) ;
#141 = DIRECTION ( 'NONE',  ( 0.000000000000000000, 0.000000000000000000, -1.000000000000000000 ) ) ;
#142 = CARTESIAN_POINT ( 'NONE',  ( 2.799999999999999822, 0.2500000000000000000, -6.119339505807949412E-16 ) ) ;
#143 = ORIENTED_EDGE ( 'NONE', *, *, #473, .T. ) ;
#144 = EDGE_CURVE ( 'NONE', #17, #298, #610, .T. ) ;
#145 = DIRECTION ( 'NONE',  ( 0.000000000000000000, 1.000000000000000000, -0.000000000000000000 ) ) ;
#146 = CARTESIAN_POINT ( 'NONE',  ( 2.799999999999998934, -0.1000000000000000056, -2.295081967213114638 ) ) ;
#147 = ORIENTED_EDGE ( 'NONE', *, *, #43, .T. ) ;
#148 = AXIS2_PLACEMENT_3D ( 'NONE', #81, #565, #15 ) ;
#149 = CARTESIAN_POINT ( 'NONE',  ( 0.000000000000000000, -0.1000000000000000056, 0.000000000000000000 ) ) ;
#150 = PLANE ( 'NONE',  #251 ) ;
#151 = VERTEX_POINT ( 'NONE', #791 ) ;
#152 = AXIS2_PLACEMENT_3D ( 'NONE', #554, #621, #432 ) ;
#153 = DIRECTION ( 'NONE',  ( 0.000000000000000000, -1.000000000000000000, 0.000000000000000000 ) ) ;
#154 = EDGE_CURVE ( 'NONE', #514, #365, #566, .T. ) ;
#155 = CARTESIAN_POINT ( 'NONE',  ( 1.799999999999999600, 0.000000000000000000, 9.834652777191345614E-16 ) ) ;
#156 = ORIENTED_EDGE ( 'NONE', *, *, #185, .T. ) ;
#157 = DIRECTION ( 'NONE',  ( -2.185478394931410575E-16, 0.000000000000000000, -1.000000000000000000 ) ) ;
#158 = EDGE_CURVE ( 'NONE', #9, #763, #481, .T. ) ;
#159 = ORIENTED_EDGE ( 'NONE', *, *, #86, .F. ) ;
#160 = APPROVAL_ROLE ( '' ) ;
#161 = CARTESIAN_POINT ( 'NONE',  ( 2.549999999999999822, 0.000000000000000000, 0.000000000000000000 ) ) ;
#162 = ORIENTED_EDGE ( 'NONE', *, *, #777, .F. ) ;
#163 = PERSON_AND_ORGANIZATION_ROLE ( 'classification_officer' ) ;
#164 = DIRECTION ( 'NONE',  ( -0.000000000000000000, -1.000000000000000000, -0.000000000000000000 ) ) ;
#165 = AXIS2_PLACEMENT_3D ( 'NONE', #630, #273, #706 ) ;
#166 = EDGE_LOOP ( 'NONE', ( #30, #176, #502, #226 ) ) ;
#167 = PRODUCT_DEFINITION_SHAPE ( 'NONE', 'NONE',  #271 ) ;
#168 = DATE_AND_TIME ( #711, #275 ) ;
#169 = CARTESIAN_POINT ( 'NONE',  ( 0.000000000000000000, 0.000000000000000000, 0.000000000000000000 ) ) ;
#170 = ORIENTED_EDGE ( 'NONE', *, *, #428, .T. ) ;
#171 = VERTEX_POINT ( 'NONE', #434 ) ;
#172 = LENGTH_MEASURE_WITH_UNIT ( LENGTH_MEASURE( 0.02539999999999999897 ), #536 );
#173 = VECTOR ( 'NONE', #756, 39.37007874015748143 ) ;
#174 = LINE ( 'NONE', #342, #241 ) ;
#175 = ORIENTED_EDGE ( 'NONE', *, *, #550, .T. ) ;
#176 = ORIENTED_EDGE ( 'NONE', *, *, #31, .T. ) ;
#177 = AXIS2_PLACEMENT_3D ( 'NONE', #454, #82, #204 ) ;
#178 = CARTESIAN_POINT ( 'NONE',  ( 2.799999999999999822, 0.2500000000000000000, -6.119339505807949412E-16 ) ) ;
#179 = EDGE_CURVE ( 'NONE', #298, #100, #486, .T. ) ;
#180 = ADVANCED_FACE ( 'NONE', ( #269 ), #150, .T. ) ;
#181 = VECTOR ( 'NONE', #785, 39.37007874015748143 ) ;
#182 = ORIENTED_EDGE ( 'NONE', *, *, #144, .F. ) ;
#183 = CIRCLE ( 'NONE', #627, 0.08267716535433089486 ) ;
#184 = DIRECTION ( 'NONE',  ( -0.000000000000000000, -1.000000000000000000, -0.000000000000000000 ) ) ;
#185 = EDGE_CURVE ( 'NONE', #674, #335, #647, .T. ) ;
#186 = DIRECTION ( 'NONE',  ( -1.000000000000000000, 0.000000000000000000, -4.097771990496395321E-16 ) ) ;
#187 = CARTESIAN_POINT ( 'NONE',  ( 2.549999999999999822, -0.1000000000000000056, 0.000000000000000000 ) ) ;
#188 = DIRECTION ( 'NONE',  ( 0.000000000000000000, 0.000000000000000000, -1.000000000000000000 ) ) ;
#189 = VERTEX_POINT ( 'NONE', #277 ) ;
#190 = DIRECTION ( 'NONE',  ( 0.000000000000000000, 0.000000000000000000, -1.000000000000000000 ) ) ;
#191 = CARTESIAN_POINT ( 'NONE',  ( -0.1250000000000008049, 0.2500000000000000000, 0.07991803278688570933 ) ) ;
#192 = EDGE_LOOP ( 'NONE', ( #491, #147, #450, #768 ) ) ;
#193 = EDGE_CURVE ( 'NONE', #233, #91, #40, .T. ) ;
#194 = FACE_OUTER_BOUND ( 'NONE', #466, .T. ) ;
#195 = DIRECTION ( 'NONE',  ( -5.463695987328526437E-16, 0.000000000000000000, 1.000000000000000000 ) ) ;
#196 = VERTEX_POINT ( 'NONE', #394 ) ;
#197 = DIRECTION ( 'NONE',  ( -0.000000000000000000, -1.000000000000000000, -0.000000000000000000 ) ) ;
#198 = PLANE ( 'NONE',  #281 ) ;
#199 = ORIENTED_EDGE ( 'NONE', *, *, #14, .T. ) ;
#200 = FACE_OUTER_BOUND ( 'NONE', #624, .T. ) ;
#201 = DIRECTION ( 'NONE',  ( -0.000000000000000000, -1.000000000000000000, -0.000000000000000000 ) ) ;
#202 = ORIENTED_EDGE ( 'NONE', *, *, #117, .F. ) ;
#203 = DIRECTION ( 'NONE',  ( -0.000000000000000000, -1.000000000000000000, -0.000000000000000000 ) ) ;
#204 = DIRECTION ( 'NONE',  ( 0.000000000000000000, 0.000000000000000000, -1.000000000000000000 ) ) ;
#205 = AXIS2_PLACEMENT_3D ( 'NONE', #530, #775, #475 ) ;
#206 = EDGE_CURVE ( 'NONE', #171, #9, #703, .T. ) ;
#207 = EDGE_LOOP ( 'NONE', ( #607, #112, #202, #316 ) ) ;
#208 = FACE_OUTER_BOUND ( 'NONE', #620, .T. ) ;
#209 = CARTESIAN_POINT ( 'NONE',  ( 2.675000000000000266, 0.3999999999999996891, -2.252759132567445644 ) ) ;
#210 = ORIENTED_EDGE ( 'NONE', *, *, #359, .F. ) ;
#211 = VECTOR ( 'NONE', #407, 39.37007874015748143 ) ;
#212 = CC_DESIGN_PERSON_AND_ORGANIZATION_ASSIGNMENT ( #719, #227, ( #41 ) ) ;
#213 = PLANE ( 'NONE',  #666 ) ;
#214 = CARTESIAN_POINT ( 'NONE',  ( -0.1250000000000009714, 0.3999999999999996891, -2.087404801858784076 ) ) ;
#215 = VECTOR ( 'NONE', #244, 39.37007874015748143 ) ;
#216 = ORIENTED_EDGE ( 'NONE', *, *, #400, .F. ) ;
#217 = AXIS2_PLACEMENT_3D ( 'NONE', #25, #203, #141 ) ;
#218 = DIRECTION ( 'NONE',  ( -0.000000000000000000, -1.000000000000000000, -0.000000000000000000 ) ) ;
#219 = AXIS2_PLACEMENT_3D ( 'NONE', #320, #257, #8 ) ;
#220 = LINE ( 'NONE', #155, #417 ) ;
#221 = ORIENTED_EDGE ( 'NONE', *, *, #299, .T. ) ;
#222 = DIRECTION ( 'NONE',  ( -1.229331597148918448E-16, 0.000000000000000000, -1.000000000000000000 ) ) ;
#223 = ORIENTED_EDGE ( 'NONE', *, *, #409, .F. ) ;
#224 = PERSON_AND_ORGANIZATION ( #132, #595 ) ;
#225 = CARTESIAN_POINT ( 'NONE',  ( -0.1250000000000008049, 0.3999999999999996891, -0.002759132567445019436 ) ) ;
#226 = ORIENTED_EDGE ( 'NONE', *, *, #465, .T. ) ;
#227 = PERSON_AND_ORGANIZATION_ROLE ( 'design_owner' ) ;
#228 = LINE ( 'NONE', #591, #653 ) ;
#229 = ORIENTED_EDGE ( 'NONE', *, *, #104, .F. ) ;
#230 = VERTEX_POINT ( 'NONE', #334 ) ;
#231 = DIRECTION ( 'NONE',  ( 1.000000000000000000, 0.000000000000000000, 0.000000000000000000 ) ) ;
#232 = DIRECTION ( 'NONE',  ( 1.000000000000000000, 0.000000000000000000, -0.000000000000000000 ) ) ;
#233 = VERTEX_POINT ( 'NONE', #504 ) ;
#234 = EDGE_CURVE ( 'NONE', #348, #255, #85, .T. ) ;
#235 = PLANE ( 'NONE',  #615 ) ;
#236 = ORIENTED_EDGE ( 'NONE', *, *, #126, .F. ) ;
#237 = VECTOR ( 'NONE', #375, 39.37007874015748143 ) ;
#238 = EDGE_CURVE ( 'NONE', #642, #431, #766, .T. ) ;
#239 = FACE_BOUND ( 'NONE', #731, .T. ) ;
#240 = CARTESIAN_POINT ( 'NONE',  ( 2.800000000000000266, -0.1000000000000000056, -0.1912033841260781242 ) ) ;
#241 = VECTOR ( 'NONE', #36, 39.37007874015748143 ) ;
#242 = CARTESIAN_POINT ( 'NONE',  ( 2.799999999999999822, -0.1000000000000000056, 0.2049180327868852236 ) ) ;
#243 = MANIFOLD_SOLID_BREP ( 'Cut-Extrude2', #317 ) ;
#244 = DIRECTION ( 'NONE',  ( -1.000000000000000000, 0.000000000000000000, -1.365923996832130870E-16 ) ) ;
#245 = ORIENTED_EDGE ( 'NONE', *, *, #743, .T. ) ;
#246 = APPROVAL_ROLE ( '' ) ;
#247 = DIRECTION ( 'NONE',  ( 1.000000000000000000, -0.000000000000000000, 0.000000000000000000 ) ) ;
#248 = AXIS2_PLACEMENT_3D ( 'NONE', #634, #629, #765 ) ;
#249 = FACE_OUTER_BOUND ( 'NONE', #47, .T. ) ;
#250 = ORIENTED_EDGE ( 'NONE', *, *, #121, .F. ) ;
#251 = AXIS2_PLACEMENT_3D ( 'NONE', #142, #397, #157 ) ;
#252 = CARTESIAN_POINT ( 'NONE',  ( 0.000000000000000000, -0.1000000000000000056, 0.000000000000000000 ) ) ;
#253 = DIRECTION ( 'NONE',  ( -0.000000000000000000, -1.000000000000000000, -0.000000000000000000 ) ) ;
#254 = VECTOR ( 'NONE', #568, 39.37007874015748143 ) ;
#255 = VERTEX_POINT ( 'NONE', #519 ) ;
#256 = CARTESIAN_POINT ( 'NONE',  ( 2.675000000000000266, 0.3999999999999996891, -2.170081967213114638 ) ) ;
#257 = DIRECTION ( 'NONE',  ( 1.000000000000000000, 0.000000000000000000, -2.185478394931410575E-16 ) ) ;
#258 = VERTEX_POINT ( 'NONE', #509 ) ;
#259 = ADVANCED_FACE ( 'NONE', ( #336 ), #753, .F. ) ;
#260 = DIRECTION ( 'NONE',  ( 1.000000000000000000, 0.000000000000000000, -0.000000000000000000 ) ) ;
#261 = LINE ( 'NONE', #146, #267 ) ;
#262 = VERTEX_POINT ( 'NONE', #444 ) ;
#263 = DIRECTION ( 'NONE',  ( 0.000000000000000000, 0.000000000000000000, -1.000000000000000000 ) ) ;
#264 = EDGE_CURVE ( 'NONE', #646, #533, #220, .T. ) ;
#265 = CARTESIAN_POINT ( 'NONE',  ( 2.549999999999999822, -0.1000000000000000056, -1.191203384126078069 ) ) ;
#266 = EDGE_LOOP ( 'NONE', ( #229, #398 ) ) ;
#267 = VECTOR ( 'NONE', #573, 39.37007874015748143 ) ;
#268 = LINE ( 'NONE', #508, #173 ) ;
#269 = FACE_OUTER_BOUND ( 'NONE', #166, .T. ) ;
#270 = ORIENTED_EDGE ( 'NONE', *, *, #608, .F. ) ;
#271 = PRODUCT_DEFINITION ( 'UNKNOWN', '', #559, #493 ) ;
#272 = CARTESIAN_POINT ( 'NONE',  ( 2.675000000000000266, -0.1000000000000000056, -2.170081967213114638 ) ) ;
#273 = DIRECTION ( 'NONE',  ( 0.000000000000000000, 1.000000000000000000, -0.000000000000000000 ) ) ;
#274 = ORIENTED_EDGE ( 'NONE', *, *, #376, .F. ) ;
#275 = LOCAL_TIME ( 18, 56, 7.000000000000000000, #649 ) ;
#276 = CARTESIAN_POINT ( 'NONE',  ( 2.675000000000000266, 0.2500000000000000000, -2.252759132567445644 ) ) ;
#277 = CARTESIAN_POINT ( 'NONE',  ( 2.799999999999999822, 0.2500000000000000000, 0.2049180327868852236 ) ) ;
#278 = ORIENTED_EDGE ( 'NONE', *, *, #618, .T. ) ;
#279 = AXIS2_PLACEMENT_3D ( 'NONE', #300, #197, #305 ) ;
#280 = PERSON_AND_ORGANIZATION ( #132, #595 ) ;
#281 = AXIS2_PLACEMENT_3D ( 'NONE', #66, #622, #12 ) ;
#282 = DIRECTION ( 'NONE',  ( 0.000000000000000000, 0.000000000000000000, -1.000000000000000000 ) ) ;
#283 = ORIENTED_EDGE ( 'NONE', *, *, #158, .T. ) ;
#284 = PERSON_AND_ORGANIZATION_ROLE ( 'creator' ) ;
#285 = DIRECTION ( 'NONE',  ( 0.000000000000000000, 0.000000000000000000, -1.000000000000000000 ) ) ;
#286 = EDGE_LOOP ( 'NONE', ( #599, #525, #547, #5, #175, #418, #496, #669, #388, #773, #445, #726 ) ) ;
#287 = CIRCLE ( 'NONE', #760, 0.08267716535433061731 ) ;
#288 = PERSON_AND_ORGANIZATION ( #132, #595 ) ;
#289 = CARTESIAN_POINT ( 'NONE',  ( 0.000000000000000000, 0.2500000000000000000, -2.295081967213114638 ) ) ;
#290 = CARTESIAN_POINT ( 'NONE',  ( 2.799999999999999822, -0.1000000000000000056, 0.2049180327868852236 ) ) ;
#291 = APPROVAL_PERSON_ORGANIZATION ( #50, #10, #246 ) ;
#292 = LINE ( 'NONE', #782, #553 ) ;
#293 = CARTESIAN_POINT ( 'NONE',  ( -0.2500000000000004996, -0.1000000000000000056, 0.2049180327868856122 ) ) ;
#294 = CARTESIAN_POINT ( 'NONE',  ( 2.549999999999999822, 0.000000000000000000, -1.191203384126077847 ) ) ;
#295 = PRODUCT_RELATED_PRODUCT_CATEGORY ( 'detail', '', ( #41 ) ) ;
#296 = MECHANICAL_CONTEXT ( 'NONE', #637, 'mechanical' ) ;
#297 = CARTESIAN_POINT ( 'NONE',  ( 2.549999999999999822, 0.000000000000000000, 0.000000000000000000 ) ) ;
#298 = VERTEX_POINT ( 'NONE', #693 ) ;
#299 = EDGE_CURVE ( 'NONE', #763, #533, #750, .T. ) ;
#300 = CARTESIAN_POINT ( 'NONE',  ( -0.1250000000000009992, 0.3999999999999996891, -2.170081967213114638 ) ) ;
#301 = ORIENTED_EDGE ( 'NONE', *, *, #345, .T. ) ;
#302 = DIRECTION ( 'NONE',  ( -1.000000000000000000, 0.000000000000000000, -4.097771990496395321E-16 ) ) ;
#303 = CARTESIAN_POINT ( 'NONE',  ( 2.549999999999999822, 0.000000000000000000, 0.000000000000000000 ) ) ;
#304 = ORIENTED_EDGE ( 'NONE', *, *, #446, .T. ) ;
#305 = DIRECTION ( 'NONE',  ( 0.000000000000000000, 0.000000000000000000, -1.000000000000000000 ) ) ;
#306 = DIRECTION ( 'NONE',  ( 0.000000000000000000, 1.000000000000000000, -0.000000000000000000 ) ) ;
#307 = ORIENTED_EDGE ( 'NONE', *, *, #437, .F. ) ;
#308 = DIRECTION ( 'NONE',  ( -0.000000000000000000, -1.000000000000000000, -0.000000000000000000 ) ) ;
#309 = VECTOR ( 'NONE', #84, 39.37007874015748143 ) ;
#310 = LINE ( 'NONE', #741, #107 ) ;
#311 = EDGE_LOOP ( 'NONE', ( #53, #786, #558, #655 ) ) ;
#312 = SHAPE_DEFINITION_REPRESENTATION ( #167, #455 ) ;
#313 = FACE_OUTER_BOUND ( 'NONE', #391, .T. ) ;
#314 = CARTESIAN_POINT ( 'NONE',  ( -0.1250000000000008049, -0.1000000000000000056, 0.1625951981412164238 ) ) ;
#315 = VECTOR ( 'NONE', #367, 39.37007874015748143 ) ;
#316 = ORIENTED_EDGE ( 'NONE', *, *, #772, .F. ) ;
#317 = CLOSED_SHELL ( 'NONE', ( #645, #516, #735, #180, #584, #405, #392, #759, #92, #539, #690, #603, #381, #259, #749, #88, #485, #55, #61, #505, #338, #531 ) ) ;
#318 = EDGE_CURVE ( 'NONE', #408, #567, #387, .T. ) ;
#319 = CARTESIAN_POINT ( 'NONE',  ( -0.1250000000000009992, -0.1000000000000000056, -2.170081967213114638 ) ) ;
#320 = CARTESIAN_POINT ( 'NONE',  ( 2.799999999999999822, 0.2500000000000000000, -6.119339505807949412E-16 ) ) ;
#321 = VERTEX_POINT ( 'NONE', #265 ) ;
#322 = EDGE_CURVE ( 'NONE', #541, #348, #506, .T. ) ;
#323 = LINE ( 'NONE', #571, #767 ) ;
#324 = LINE ( 'NONE', #569, #612 ) ;
#325 = VERTEX_POINT ( 'NONE', #90 ) ;
#326 = DIRECTION ( 'NONE',  ( 0.000000000000000000, -1.000000000000000000, 0.000000000000000000 ) ) ;
#327 = LINE ( 'NONE', #22, #574 ) ;
#328 = ORIENTED_EDGE ( 'NONE', *, *, #179, .F. ) ;
#329 = CARTESIAN_POINT ( 'NONE',  ( 1.799999999999999600, 0.2500000000000000000, -0.1912033841260782630 ) ) ;
#330 = CARTESIAN_POINT ( 'NONE',  ( 1.799999999999999600, 0.3999999999999996891, -0.1912033841260782630 ) ) ;
#331 = EDGE_CURVE ( 'NONE', #196, #325, #261, .T. ) ;
#332 = VERTEX_POINT ( 'NONE', #512 ) ;
#333 = CARTESIAN_POINT ( 'NONE',  ( 2.800000000000000266, -0.1000000000000000056, -1.191203384126077847 ) ) ;
#334 = CARTESIAN_POINT ( 'NONE',  ( -0.1250000000000008049, -0.1000000000000000056, -0.002759132567445019436 ) ) ;
#335 = VERTEX_POINT ( 'NONE', #501 ) ;
#336 = FACE_OUTER_BOUND ( 'NONE', #462, .T. ) ;
#337 = EDGE_LOOP ( 'NONE', ( #283, #221, #538, #570 ) ) ;
#338 = ADVANCED_FACE ( 'NONE', ( #390 ), #762, .F. ) ;
#339 = CIRCLE ( 'NONE', #369, 0.08267716535433072833 ) ;
#340 = PERSON_AND_ORGANIZATION_ROLE ( 'creator' ) ;
#341 = VECTOR ( 'NONE', #549, 39.37007874015748143 ) ;
#342 = CARTESIAN_POINT ( 'NONE',  ( 0.000000000000000000, -0.1000000000000000056, 0.000000000000000000 ) ) ;
#343 = ORIENTED_EDGE ( 'NONE', *, *, #663, .F. ) ;
#344 = VECTOR ( 'NONE', #667, 39.37007874015748143 ) ;
#345 = EDGE_CURVE ( 'NONE', #321, #17, #324, .T. ) ;
#346 = CARTESIAN_POINT ( 'NONE',  ( 0.000000000000000000, 0.000000000000000000, 0.000000000000000000 ) ) ;
#347 = DIRECTION ( 'NONE',  ( 0.000000000000000000, 0.000000000000000000, -1.000000000000000000 ) ) ;
#348 = VERTEX_POINT ( 'NONE', #79 ) ;
#349 = VECTOR ( 'NONE', #105, 39.37007874015748143 ) ;
#350 = LOCAL_TIME ( 18, 56, 7.000000000000000000, #109 ) ;
#351 = APPLICATION_PROTOCOL_DEFINITION ( 'international standard', 'config_control_design', 1994, #451 ) ;
#352 = DIRECTION ( 'NONE',  ( 1.000000000000000000, 0.000000000000000000, -1.229331597148918448E-16 ) ) ;
#353 = CC_DESIGN_DATE_AND_TIME_ASSIGNMENT ( #778, #597, ( #271 ) ) ;
#354 = CARTESIAN_POINT ( 'NONE',  ( 2.799999999999998934, -0.1000000000000000056, -2.295081967213114638 ) ) ;
#355 = APPROVAL_PERSON_ORGANIZATION ( #356, #745, #660 ) ;
#356 = PERSON_AND_ORGANIZATION ( #132, #595 ) ;
#357 = AXIS2_PLACEMENT_3D ( 'NONE', #48, #6, #361 ) ;
#358 = CARTESIAN_POINT ( 'NONE',  ( -0.2500000000000005551, 0.2500000000000000000, 3.073328992872302900E-17 ) ) ;
#359 = EDGE_CURVE ( 'NONE', #262, #514, #327, .T. ) ;
#360 = ORIENTED_EDGE ( 'NONE', *, *, #714, .T. ) ;
#361 = DIRECTION ( 'NONE',  ( 0.000000000000000000, 0.000000000000000000, 1.000000000000000000 ) ) ;
#362 = ORIENTED_EDGE ( 'NONE', *, *, #550, .F. ) ;
#363 = PLANE ( 'NONE',  #357 ) ;
#364 = FACE_OUTER_BOUND ( 'NONE', #401, .T. ) ;
#365 = VERTEX_POINT ( 'NONE', #115 ) ;
#366 = EDGE_CURVE ( 'NONE', #91, #230, #339, .T. ) ;
#367 = DIRECTION ( 'NONE',  ( -0.000000000000000000, -1.000000000000000000, -0.000000000000000000 ) ) ;
#368 = DIRECTION ( 'NONE',  ( 0.000000000000000000, 0.000000000000000000, 1.000000000000000000 ) ) ;
#369 = AXIS2_PLACEMENT_3D ( 'NONE', #39, #662, #347 ) ;
#370 = VERTEX_POINT ( 'NONE', #537 ) ;
#371 = LINE ( 'NONE', #617, #111 ) ;
#372 = CARTESIAN_POINT ( 'NONE',  ( 2.799999999999999822, 0.2500000000000000000, 0.2049180327868852236 ) ) ;
#373 = ORIENTED_EDGE ( 'NONE', *, *, #206, .F. ) ;
#374 = DIRECTION ( 'NONE',  ( 4.097771990496395321E-16, 0.000000000000000000, -1.000000000000000000 ) ) ;
#375 = DIRECTION ( 'NONE',  ( -1.000000000000000000, -0.000000000000000000, -0.000000000000000000 ) ) ;
#376 = EDGE_CURVE ( 'NONE', #431, #13, #471, .T. ) ;
#377 = EDGE_CURVE ( 'NONE', #321, #116, #779, .T. ) ;
#378 = ORIENTED_EDGE ( 'NONE', *, *, #572, .T. ) ;
#379 = VECTOR ( 'NONE', #195, 39.37007874015748143 ) ;
#380 = CARTESIAN_POINT ( 'NONE',  ( -0.2500000000000005551, 0.2500000000000000000, 3.073328992872302900E-17 ) ) ;
#381 = ADVANCED_FACE ( 'NONE', ( #654 ), #235, .F. ) ;
#382 = CARTESIAN_POINT ( 'NONE',  ( 0.000000000000000000, 0.000000000000000000, 0.000000000000000000 ) ) ;
#383 = VECTOR ( 'NONE', #679, 39.37007874015748143 ) ;
#384 = EDGE_CURVE ( 'NONE', #116, #80, #771, .T. ) ;
#385 = EDGE_LOOP ( 'NONE', ( #747, #395 ) ) ;
#386 = DIRECTION ( 'NONE',  ( 0.000000000000000000, 0.000000000000000000, -1.000000000000000000 ) ) ;
#387 = LINE ( 'NONE', #461, #54 ) ;
#388 = ORIENTED_EDGE ( 'NONE', *, *, #14, .F. ) ;
#389 = LINE ( 'NONE', #18, #254 ) ;
#390 = FACE_OUTER_BOUND ( 'NONE', #705, .T. ) ;
#391 = EDGE_LOOP ( 'NONE', ( #34, #301, #694, #124 ) ) ;
#392 = ADVANCED_FACE ( 'NONE', ( #594 ), #46, .F. ) ;
#393 = DIRECTION ( 'NONE',  ( 0.000000000000000000, 0.000000000000000000, 1.000000000000000000 ) ) ;
#394 = CARTESIAN_POINT ( 'NONE',  ( 2.799999999999998934, -0.1000000000000000056, -2.295081967213114638 ) ) ;
#395 = ORIENTED_EDGE ( 'NONE', *, *, #366, .F. ) ;
#396 = PLANE ( 'NONE',  #103 ) ;
#397 = DIRECTION ( 'NONE',  ( 1.000000000000000000, 0.000000000000000000, -2.185478394931410575E-16 ) ) ;
#398 = ORIENTED_EDGE ( 'NONE', *, *, #701, .F. ) ;
#399 = DIRECTION ( 'NONE',  ( -0.000000000000000000, -1.000000000000000000, -0.000000000000000000 ) ) ;
#400 = EDGE_CURVE ( 'NONE', #171, #691, #601, .T. ) ;
#401 = EDGE_LOOP ( 'NONE', ( #182, #678, #68, #631, #274, #236, #162, #328 ) ) ;
#402 = CALENDAR_DATE ( 2026, 3, 5 ) ;
#403 = CARTESIAN_POINT ( 'NONE',  ( 2.799999999999998934, 0.2500000000000000000, -2.295081967213114638 ) ) ;
#404 = ORIENTED_EDGE ( 'NONE', *, *, #777, .T. ) ;
#405 = ADVANCED_FACE ( 'NONE', ( #721 ), #709, .F. ) ;
#406 = CALENDAR_DATE ( 2026, 3, 5 ) ;
#407 = DIRECTION ( 'NONE',  ( 0.000000000000000000, 1.000000000000000000, 0.000000000000000000 ) ) ;
#408 = VERTEX_POINT ( 'NONE', #403 ) ;
#409 = EDGE_CURVE ( 'NONE', #80, #636, #650, .T. ) ;
#410 = CARTESIAN_POINT ( 'NONE',  ( -0.1250000000000009992, 0.3999999999999996891, -2.252759132567445199 ) ) ;
#411 = CARTESIAN_POINT ( 'NONE',  ( 0.000000000000000000, -0.1000000000000000056, -2.000000000000000000 ) ) ;
#412 = APPROVAL_PERSON_ORGANIZATION ( #280, #492, #160 ) ;
#413 =( CONVERSION_BASED_UNIT ( 'INCH', #172 ) LENGTH_UNIT ( ) NAMED_UNIT ( #633 ) );
#414 = EDGE_CURVE ( 'NONE', #636, #456, #174, .T. ) ;
#415 = LINE ( 'NONE', #225, #581 ) ;
#416 = LINE ( 'NONE', #619, #421 ) ;
#417 = VECTOR ( 'NONE', #577, 39.37007874015748143 ) ;
#418 = ORIENTED_EDGE ( 'NONE', *, *, #522, .T. ) ;
#419 = AXIS2_PLACEMENT_3D ( 'NONE', #56, #737, #190 ) ;
#420 = LINE ( 'NONE', #42, #349 ) ;
#421 = VECTOR ( 'NONE', #626, 39.37007874015748143 ) ;
#422 = ORIENTED_EDGE ( 'NONE', *, *, #459, .F. ) ;
#423 = FACE_OUTER_BOUND ( 'NONE', #742, .T. ) ;
#424 = DIRECTION ( 'NONE',  ( 0.000000000000000000, 0.000000000000000000, 1.000000000000000000 ) ) ;
#425 = LINE ( 'NONE', #605, #600 ) ;
#426 = LINE ( 'NONE', #734, #341 ) ;
#427 = ORIENTED_EDGE ( 'NONE', *, *, #128, .F. ) ;
#428 = EDGE_CURVE ( 'NONE', #258, #255, #790, .T. ) ;
#429 = CYLINDRICAL_SURFACE ( 'NONE', #704, 0.08267716535433089486 ) ;
#430 = DIRECTION ( 'NONE',  ( 0.000000000000000000, 0.000000000000000000, 1.000000000000000000 ) ) ;
#431 = VERTEX_POINT ( 'NONE', #297 ) ;
#432 = DIRECTION ( 'NONE',  ( 0.000000000000000000, 0.000000000000000000, 1.000000000000000000 ) ) ;
#433 = CC_DESIGN_DATE_AND_TIME_ASSIGNMENT ( #593, #529, ( #515 ) ) ;
#434 = CARTESIAN_POINT ( 'NONE',  ( 2.800000000000000266, 0.2500000000000000000, -1.191203384126077847 ) ) ;
#435 = ORIENTED_EDGE ( 'NONE', *, *, #359, .T. ) ;
#436 = CARTESIAN_POINT ( 'NONE',  ( 2.611692906533223659E-17, 0.000000000000000000, -0.1912033841260784850 ) ) ;
#437 = EDGE_CURVE ( 'NONE', #567, #325, #228, .T. ) ;
#438 = LINE ( 'NONE', #372, #557 ) ;
#439 = ORIENTED_EDGE ( 'NONE', *, *, #238, .T. ) ;
#440 = CARTESIAN_POINT ( 'NONE',  ( 2.675000000000000266, 0.2500000000000000000, -2.170081967213114638 ) ) ;
#441 = ORIENTED_EDGE ( 'NONE', *, *, #331, .T. ) ;
#442 = AXIS2_PLACEMENT_3D ( 'NONE', #562, #72, #129 ) ;
#443 = FACE_BOUND ( 'NONE', #44, .T. ) ;
#444 = CARTESIAN_POINT ( 'NONE',  ( 2.800000000000000266, 0.2500000000000000000, -0.1912033841260781242 ) ) ;
#445 = ORIENTED_EDGE ( 'NONE', *, *, #331, .F. ) ;
#446 = EDGE_CURVE ( 'NONE', #713, #230, #415, .T. ) ;
#447 = FACE_BOUND ( 'NONE', #385, .T. ) ;
#448 = CARTESIAN_POINT ( 'NONE',  ( 2.549999999999999822, -0.1000000000000000056, 0.000000000000000000 ) ) ;
#449 = CIRCLE ( 'NONE', #248, 0.08267716535433072833 ) ;
#450 = ORIENTED_EDGE ( 'NONE', *, *, #663, .T. ) ;
#451 = APPLICATION_CONTEXT ( 'configuration controlled 3d designs of mechanical parts and assemblies' ) ;
#452 = DIRECTION ( 'NONE',  ( 0.000000000000000000, 1.000000000000000000, -0.000000000000000000 ) ) ;
#453 = VECTOR ( 'NONE', #582, 39.37007874015748143 ) ;
#454 = CARTESIAN_POINT ( 'NONE',  ( 2.549999999999999822, -0.1000000000000000056, 0.000000000000000000 ) ) ;
#455 = ADVANCED_BREP_SHAPE_REPRESENTATION ( 'bottomLid', ( #243, #632 ), #488 ) ;
#456 = VERTEX_POINT ( 'NONE', #169 ) ;
#457 = AXIS2_PLACEMENT_3D ( 'NONE', #540, #184, #127 ) ;
#458 = DIRECTION ( 'NONE',  ( 0.000000000000000000, 0.000000000000000000, -1.000000000000000000 ) ) ;
#459 = EDGE_CURVE ( 'NONE', #541, #258, #477, .T. ) ;
#460 = EDGE_CURVE ( 'NONE', #116, #298, #657, .T. ) ;
#461 = CARTESIAN_POINT ( 'NONE',  ( 0.000000000000000000, 0.2500000000000000000, -2.295081967213114638 ) ) ;
#462 = EDGE_LOOP ( 'NONE', ( #651, #710, #507, #439 ) ) ;
#463 = CALENDAR_DATE ( 2026, 3, 5 ) ;
#464 = DIRECTION ( 'NONE',  ( -0.000000000000000000, -1.000000000000000000, -0.000000000000000000 ) ) ;
#465 = EDGE_CURVE ( 'NONE', #408, #171, #725, .T. ) ;
#466 = EDGE_LOOP ( 'NONE', ( #24, #578, #156, #130 ) ) ;
#467 = COORDINATED_UNIVERSAL_TIME_OFFSET ( 6, 0, .BEHIND. ) ;
#468 = CARTESIAN_POINT ( 'NONE',  ( 0.000000000000000000, -0.1000000000000000056, 0.000000000000000000 ) ) ;
#469 = ORIENTED_EDGE ( 'NONE', *, *, #685, .T. ) ;
#470 = VECTOR ( 'NONE', #526, 39.37007874015748143 ) ;
#471 = LINE ( 'NONE', #161, #470 ) ;
#472 = ORIENTED_EDGE ( 'NONE', *, *, #465, .F. ) ;
#473 = EDGE_CURVE ( 'NONE', #487, #514, #420, .T. ) ;
#474 = APPROVAL_STATUS ( 'not_yet_approved' ) ;
#475 = DIRECTION ( 'NONE',  ( 0.000000000000000000, 0.000000000000000000, -1.000000000000000000 ) ) ;
#476 = VERTEX_POINT ( 'NONE', #293 ) ;
#477 = LINE ( 'NONE', #410, #102 ) ;
#478 = ORIENTED_EDGE ( 'NONE', *, *, #428, .F. ) ;
#479 = CIRCLE ( 'NONE', #139, 0.08267716535433089486 ) ;
#480 = PLANE ( 'NONE',  #152 ) ;
#481 = LINE ( 'NONE', #730, #379 ) ;
#482 = AXIS2_PLACEMENT_3D ( 'NONE', #358, #352, #222 ) ;
#483 = CALENDAR_DATE ( 2026, 3, 5 ) ;
#484 = CARTESIAN_POINT ( 'NONE',  ( 0.000000000000000000, -0.1000000000000000056, 0.000000000000000000 ) ) ;
#485 = ADVANCED_FACE ( 'NONE', ( #534 ), #683, .F. ) ;
#486 = LINE ( 'NONE', #680, #237 ) ;
#487 = VERTEX_POINT ( 'NONE', #242 ) ;
#488 =( GEOMETRIC_REPRESENTATION_CONTEXT ( 3 ) GLOBAL_UNCERTAINTY_ASSIGNED_CONTEXT ( ( #606 ) ) GLOBAL_UNIT_ASSIGNED_CONTEXT ( ( #413, #101, #89 ) ) REPRESENTATION_CONTEXT ( 'NONE', 'WORKASPACE' ) );
#489 = FACE_OUTER_BOUND ( 'NONE', #87, .T. ) ;
#490 = CARTESIAN_POINT ( 'NONE',  ( 0.000000000000000000, 0.000000000000000000, 0.000000000000000000 ) ) ;
#491 = ORIENTED_EDGE ( 'NONE', *, *, #104, .T. ) ;
#492 = APPROVAL ( #652, 'UNSPECIFIED' ) ;
#493 = DESIGN_CONTEXT ( 'detailed design', #451, 'design' ) ;
#494 = CARTESIAN_POINT ( 'NONE',  ( -0.1250000000000009992, 0.2500000000000000000, -2.252759132567445199 ) ) ;
#495 = PLANE ( 'NONE',  #219 ) ;
#496 = ORIENTED_EDGE ( 'NONE', *, *, #154, .F. ) ;
#497 = LINE ( 'NONE', #436, #69 ) ;
#498 = CARTESIAN_POINT ( 'NONE',  ( 0.000000000000000000, 0.000000000000000000, -2.000000000000000000 ) ) ;
#499 = EDGE_LOOP ( 'NONE', ( #739, #520, #686, #99 ) ) ;
#500 = LINE ( 'NONE', #748, #695 ) ;
#501 = CARTESIAN_POINT ( 'NONE',  ( 2.675000000000000266, -0.1000000000000000056, -2.252759132567445644 ) ) ;
#502 = ORIENTED_EDGE ( 'NONE', *, *, #618, .F. ) ;
#503 = DIRECTION ( 'NONE',  ( 0.000000000000000000, -0.000000000000000000, -1.000000000000000000 ) ) ;
#504 = CARTESIAN_POINT ( 'NONE',  ( -0.1250000000000008049, 0.2500000000000000000, 0.1625951981412164238 ) ) ;
#505 = ADVANCED_FACE ( 'NONE', ( #194 ), #429, .F. ) ;
#506 = CIRCLE ( 'NONE', #165, 0.08267716535433061731 ) ;
#507 = ORIENTED_EDGE ( 'NONE', *, *, #522, .F. ) ;
#508 = CARTESIAN_POINT ( 'NONE',  ( 2.611692906533223659E-17, 0.2500000000000000000, -0.1912033841260784850 ) ) ;
#509 = CARTESIAN_POINT ( 'NONE',  ( -0.1250000000000009992, -0.1000000000000000056, -2.252759132567445199 ) ) ;
#510 = ORIENTED_EDGE ( 'NONE', *, *, #723, .F. ) ;
#511 = FACE_OUTER_BOUND ( 'NONE', #286, .T. ) ;
#512 = CARTESIAN_POINT ( 'NONE',  ( 2.675000000000000266, 0.2500000000000000000, -2.087404801858783632 ) ) ;
#513 = LOCAL_TIME ( 18, 56, 7.000000000000000000, #45 ) ;
#514 = VERTEX_POINT ( 'NONE', #609 ) ;
#515 = SECURITY_CLASSIFICATION ( '', '', #35 ) ;
#516 = ADVANCED_FACE ( 'NONE', ( #489 ), #51, .F. ) ;
#517 = FACE_BOUND ( 'NONE', #58, .T. ) ;
#518 = LOCAL_TIME ( 18, 56, 7.000000000000000000, #732 ) ;
#519 = CARTESIAN_POINT ( 'NONE',  ( -0.1250000000000009714, -0.1000000000000000056, -2.087404801858784076 ) ) ;
#520 = ORIENTED_EDGE ( 'NONE', *, *, #23, .F. ) ;
#521 = AXIS2_PLACEMENT_3D ( 'NONE', #490, #3, #368 ) ;
#522 = EDGE_CURVE ( 'NONE', #642, #365, #425, .T. ) ;
#523 = DIRECTION ( 'NONE',  ( 0.000000000000000000, -1.000000000000000000, 0.000000000000000000 ) ) ;
#524 = DIRECTION ( 'NONE',  ( -1.000000000000000000, 0.000000000000000000, -0.000000000000000000 ) ) ;
#525 = ORIENTED_EDGE ( 'NONE', *, *, #377, .T. ) ;
#526 = DIRECTION ( 'NONE',  ( 0.000000000000000000, 0.000000000000000000, -1.000000000000000000 ) ) ;
#527 = AXIS2_PLACEMENT_3D ( 'NONE', #74, #218, #458 ) ;
#528 = DIRECTION ( 'NONE',  ( 1.000000000000000000, -0.000000000000000000, -1.231570816815856252E-16 ) ) ;
#529 = DATE_TIME_ROLE ( 'classification_date' ) ;
#530 = CARTESIAN_POINT ( 'NONE',  ( -0.1250000000000009992, -0.1000000000000000056, -2.170081967213114638 ) ) ;
#531 = ADVANCED_FACE ( 'NONE', ( #423 ), #676, .F. ) ;
#532 = ORIENTED_EDGE ( 'NONE', *, *, #234, .F. ) ;
#533 = VERTEX_POINT ( 'NONE', #544 ) ;
#534 = FACE_OUTER_BOUND ( 'NONE', #587, .T. ) ;
#535 = DIRECTION ( 'NONE',  ( -2.185478394931410821E-16, -0.000000000000000000, -1.000000000000000000 ) ) ;
#536 =( LENGTH_UNIT ( ) NAMED_UNIT ( * ) SI_UNIT ( $, .METRE. ) );
#537 = CARTESIAN_POINT ( 'NONE',  ( -0.2500000000000004996, 0.2500000000000000000, 0.2049180327868856122 ) ) ;
#538 = ORIENTED_EDGE ( 'NONE', *, *, #264, .F. ) ;
#539 = ADVANCED_FACE ( 'NONE', ( #239, #548, #789, #65 ), #480, .T. ) ;
#540 = CARTESIAN_POINT ( 'NONE',  ( -0.1250000000000008049, 0.3999999999999996891, 0.07991803278688570933 ) ) ;
#541 = VERTEX_POINT ( 'NONE', #494 ) ;
#542 = EDGE_CURVE ( 'NONE', #533, #13, #497, .T. ) ;
#543 = AXIS2_PLACEMENT_3D ( 'NONE', #688, #757, #75 ) ;
#544 = CARTESIAN_POINT ( 'NONE',  ( 1.799999999999999600, 0.000000000000000000, -0.1912033841260782630 ) ) ;
#545 = CIRCLE ( 'NONE', #70, 0.08267716535433072833 ) ;
#546 = DIRECTION ( 'NONE',  ( 1.000000000000000000, 0.000000000000000000, 0.000000000000000000 ) ) ;
#547 = ORIENTED_EDGE ( 'NONE', *, *, #384, .T. ) ;
#548 = FACE_BOUND ( 'NONE', #49, .T. ) ;
#549 = DIRECTION ( 'NONE',  ( -1.000000000000000000, 0.000000000000000000, 1.231570816815856252E-16 ) ) ;
#550 = EDGE_CURVE ( 'NONE', #636, #642, #131, .T. ) ;
#551 = ORIENTED_EDGE ( 'NONE', *, *, #459, .T. ) ;
#552 = AXIS2_PLACEMENT_3D ( 'NONE', #740, #374, #302 ) ;
#553 = VECTOR ( 'NONE', #523, 39.37007874015748143 ) ;
#554 = CARTESIAN_POINT ( 'NONE',  ( 0.000000000000000000, 0.2500000000000000000, 0.000000000000000000 ) ) ;
#555 = PLANE ( 'NONE',  #442 ) ;
#556 = EDGE_CURVE ( 'NONE', #262, #189, #2, .T. ) ;
#557 = VECTOR ( 'NONE', #746, 39.37007874015748143 ) ;
#558 = ORIENTED_EDGE ( 'NONE', *, *, #366, .T. ) ;
#559 = PRODUCT_DEFINITION_FORMATION_WITH_SPECIFIED_SOURCE ( 'ANY', '', #41, .NOT_KNOWN. ) ;
#560 = PLANE ( 'NONE',  #727 ) ;
#561 = AXIS2_PLACEMENT_3D ( 'NONE', #319, #761, #263 ) ;
#562 = CARTESIAN_POINT ( 'NONE',  ( 1.799999999999999600, 0.3999999999999996891, -0.1912033841260782630 ) ) ;
#563 = AXIS2_PLACEMENT_3D ( 'NONE', #191, #52, #684 ) ;
#564 = ORIENTED_EDGE ( 'NONE', *, *, #675, .F. ) ;
#565 = DIRECTION ( 'NONE',  ( 1.231570816815856252E-16, -0.000000000000000000, 1.000000000000000000 ) ) ;
#566 = LINE ( 'NONE', #240, #215 ) ;
#567 = VERTEX_POINT ( 'NONE', #122 ) ;
#568 = DIRECTION ( 'NONE',  ( 1.229331597148918448E-16, 0.000000000000000000, 1.000000000000000000 ) ) ;
#569 = CARTESIAN_POINT ( 'NONE',  ( 2.549999999999999822, -0.1000000000000000056, -1.191203384126078069 ) ) ;
#570 = ORIENTED_EDGE ( 'NONE', *, *, #572, .F. ) ;
#571 = CARTESIAN_POINT ( 'NONE',  ( 2.800000000000000266, -0.1000000000000000056, -1.191203384126077847 ) ) ;
#572 = EDGE_CURVE ( 'NONE', #9, #646, #733, .T. ) ;
#573 = DIRECTION ( 'NONE',  ( -1.000000000000000000, 0.000000000000000000, 0.000000000000000000 ) ) ;
#574 = VECTOR ( 'NONE', #697, 39.37007874015748143 ) ;
#575 = ORIENTED_EDGE ( 'NONE', *, *, #781, .F. ) ;
#576 = LINE ( 'NONE', #380, #309 ) ;
#577 = DIRECTION ( 'NONE',  ( -5.463695987328526437E-16, 0.000000000000000000, 1.000000000000000000 ) ) ;
#578 = ORIENTED_EDGE ( 'NONE', *, *, #701, .T. ) ;
#579 = CC_DESIGN_PERSON_AND_ORGANIZATION_ASSIGNMENT ( #224, #163, ( #515 ) ) ;
#580 = DIRECTION ( 'NONE',  ( 0.000000000000000000, 0.000000000000000000, 1.000000000000000000 ) ) ;
#581 = VECTOR ( 'NONE', #783, 39.37007874015748143 ) ;
#582 = DIRECTION ( 'NONE',  ( -0.000000000000000000, -1.000000000000000000, -0.000000000000000000 ) ) ;
#583 = ORIENTED_EDGE ( 'NONE', *, *, #193, .F. ) ;
#584 = ADVANCED_FACE ( 'NONE', ( #313 ), #560, .F. ) ;
#585 = DIRECTION ( 'NONE',  ( 0.000000000000000000, 0.000000000000000000, 1.000000000000000000 ) ) ;
#586 = CARTESIAN_POINT ( 'NONE',  ( 2.549999999999999822, -0.1000000000000000056, 0.000000000000000000 ) ) ;
#587 = EDGE_LOOP ( 'NONE', ( #114, #378, #427, #707, #469, #216 ) ) ;
#588 = CIRCLE ( 'NONE', #561, 0.08267716535433061731 ) ;
#589 = PERSON_AND_ORGANIZATION_ROLE ( 'design_supplier' ) ;
#590 = VECTOR ( 'NONE', #464, 39.37007874015748143 ) ;
#591 = CARTESIAN_POINT ( 'NONE',  ( -0.2500000000000008327, 0.2500000000000000000, -2.295081967213114638 ) ) ;
#592 = CARTESIAN_POINT ( 'NONE',  ( 2.549999999999999822, 0.000000000000000000, -0.1912033841260781797 ) ) ;
#593 = DATE_AND_TIME ( #406, #638 ) ;
#594 = FACE_OUTER_BOUND ( 'NONE', #207, .T. ) ;
#595 = ORGANIZATION ( 'UNSPECIFIED', 'UNSPECIFIED', '' ) ;
#596 = ORIENTED_EDGE ( 'NONE', *, *, #542, .F. ) ;
#597 = DATE_TIME_ROLE ( 'creation_date' ) ;
#598 = DIRECTION ( 'NONE',  ( 2.185478394931410821E-16, 0.000000000000000000, 1.000000000000000000 ) ) ;
#599 = ORIENTED_EDGE ( 'NONE', *, *, #685, .F. ) ;
#600 = VECTOR ( 'NONE', #672, 39.37007874015748143 ) ;
#601 = LINE ( 'NONE', #94, #590 ) ;
#602 = EDGE_LOOP ( 'NONE', ( #373, #472, #784, #665, #628, #780, #681, #138 ) ) ;
#603 = ADVANCED_FACE ( 'NONE', ( #11 ), #363, .F. ) ;
#604 = CC_DESIGN_PERSON_AND_ORGANIZATION_ASSIGNMENT ( #288, #589, ( #559 ) ) ;
#605 = CARTESIAN_POINT ( 'NONE',  ( 2.549999999999999822, -0.1000000000000000056, 0.000000000000000000 ) ) ;
#606 = UNCERTAINTY_MEASURE_WITH_UNIT (LENGTH_MEASURE( 1.000000000000000082E-05 ), #413, 'distance_accuracy_value', 'NONE');
#607 = ORIENTED_EDGE ( 'NONE', *, *, #437, .T. ) ;
#608 = EDGE_CURVE ( 'NONE', #335, #151, #33, .T. ) ;
#609 = CARTESIAN_POINT ( 'NONE',  ( 2.800000000000000266, -0.1000000000000000056, -0.1912033841260781242 ) ) ;
#610 = LINE ( 'NONE', #303, #724 ) ;
#611 = ORIENTED_EDGE ( 'NONE', *, *, #723, .T. ) ;
#612 = VECTOR ( 'NONE', #635, 39.37007874015748143 ) ;
#613 = DIRECTION ( 'NONE',  ( 0.000000000000000000, 0.000000000000000000, -1.000000000000000000 ) ) ;
#614 = CARTESIAN_POINT ( 'NONE',  ( 2.675000000000000266, 0.2500000000000000000, -2.170081967213114638 ) ) ;
#615 = AXIS2_PLACEMENT_3D ( 'NONE', #32, #285, #524 ) ;
#616 = ORIENTED_EDGE ( 'NONE', *, *, #414, .F. ) ;
#617 = CARTESIAN_POINT ( 'NONE',  ( 2.799999999999998934, 0.2500000000000000000, -2.295081967213114638 ) ) ;
#618 = EDGE_CURVE ( 'NONE', #408, #196, #371, .T. ) ;
#619 = CARTESIAN_POINT ( 'NONE',  ( 2.675000000000000266, 0.3999999999999996891, -2.087404801858783632 ) ) ;
#620 = EDGE_LOOP ( 'NONE', ( #97, #758, #362, #63 ) ) ;
#621 = DIRECTION ( 'NONE',  ( 0.000000000000000000, 1.000000000000000000, -0.000000000000000000 ) ) ;
#622 = DIRECTION ( 'NONE',  ( -1.365923996832130870E-16, 0.000000000000000000, 1.000000000000000000 ) ) ;
#623 = VECTOR ( 'NONE', #253, 39.37007874015748143 ) ;
#624 = EDGE_LOOP ( 'NONE', ( #83, #199, #250, #792 ) ) ;
#625 = CARTESIAN_POINT ( 'NONE',  ( 2.549999999999999822, -0.1000000000000000056, 0.000000000000000000 ) ) ;
#626 = DIRECTION ( 'NONE',  ( -0.000000000000000000, -1.000000000000000000, -0.000000000000000000 ) ) ;
#627 = AXIS2_PLACEMENT_3D ( 'NONE', #614, #671, #424 ) ;
#628 = ORIENTED_EDGE ( 'NONE', *, *, #77, .F. ) ;
#629 = DIRECTION ( 'NONE',  ( 0.000000000000000000, -1.000000000000000000, 0.000000000000000000 ) ) ;
#630 = CARTESIAN_POINT ( 'NONE',  ( -0.1250000000000009992, 0.2500000000000000000, -2.170081967213114638 ) ) ;
#631 = ORIENTED_EDGE ( 'NONE', *, *, #542, .T. ) ;
#632 = AXIS2_PLACEMENT_3D ( 'NONE', #346, #585, #231 ) ;
#633 = DIMENSIONAL_EXPONENTS ( 1.000000000000000000, 0.000000000000000000, 0.000000000000000000, 0.000000000000000000, 0.000000000000000000, 0.000000000000000000, 0.000000000000000000 ) ;
#634 = CARTESIAN_POINT ( 'NONE',  ( -0.1250000000000008049, -0.1000000000000000056, 0.07991803278688570933 ) ) ;
#635 = DIRECTION ( 'NONE',  ( 0.000000000000000000, 1.000000000000000000, 0.000000000000000000 ) ) ;
#636 = VERTEX_POINT ( 'NONE', #252 ) ;
#637 = APPLICATION_CONTEXT ( 'configuration controlled 3d designs of mechanical parts and assemblies' ) ;
#638 = LOCAL_TIME ( 18, 56, 7.000000000000000000, #467 ) ;
#639 = CARTESIAN_POINT ( 'NONE',  ( -0.1250000000000008049, 0.2500000000000000000, -0.002759132567445019436 ) ) ;
#640 = CC_DESIGN_PERSON_AND_ORGANIZATION_ASSIGNMENT ( #708, #284, ( #271 ) ) ;
#641 = CARTESIAN_POINT ( 'NONE',  ( 4.881279862456363897E-16, 0.2500000000000000000, -1.191203384126078957 ) ) ;
#642 = VERTEX_POINT ( 'NONE', #625 ) ;
#643 = PLANE ( 'NONE',  #148 ) ;
#644 = DIRECTION ( 'NONE',  ( 0.000000000000000000, 1.000000000000000000, 0.000000000000000000 ) ) ;
#645 = ADVANCED_FACE ( 'NONE', ( #71 ), #78, .F. ) ;
#646 = VERTEX_POINT ( 'NONE', #28 ) ;
#647 = LINE ( 'NONE', #209, #661 ) ;
#648 = EDGE_LOOP ( 'NONE', ( #404, #616, #223, #751 ) ) ;
#649 = COORDINATED_UNIVERSAL_TIME_OFFSET ( 6, 0, .BEHIND. ) ;
#650 = LINE ( 'NONE', #468, #344 ) ;
#651 = ORIENTED_EDGE ( 'NONE', *, *, #376, .T. ) ;
#652 = APPROVAL_STATUS ( 'not_yet_approved' ) ;
#653 = VECTOR ( 'NONE', #716, 39.37007874015748143 ) ;
#654 = FACE_OUTER_BOUND ( 'NONE', #499, .T. ) ;
#655 = ORIENTED_EDGE ( 'NONE', *, *, #446, .F. ) ;
#656 = APPLICATION_PROTOCOL_DEFINITION ( 'international standard', 'config_control_design', 1994, #637 ) ;
#657 = LINE ( 'NONE', #98, #211 ) ;
#658 = AXIS2_PLACEMENT_3D ( 'NONE', #440, #145, #752 ) ;
#659 = DIRECTION ( 'NONE',  ( 0.000000000000000000, 1.000000000000000000, 0.000000000000000000 ) ) ;
#660 = APPROVAL_ROLE ( '' ) ;
#661 = VECTOR ( 'NONE', #399, 39.37007874015748143 ) ;
#662 = DIRECTION ( 'NONE',  ( 0.000000000000000000, -1.000000000000000000, 0.000000000000000000 ) ) ;
#663 = EDGE_CURVE ( 'NONE', #151, #335, #479, .T. ) ;
#664 = ORIENTED_EDGE ( 'NONE', *, *, #234, .T. ) ;
#665 = ORIENTED_EDGE ( 'NONE', *, *, #772, .T. ) ;
#666 = AXIS2_PLACEMENT_3D ( 'NONE', #692, #326, #503 ) ;
#667 = DIRECTION ( 'NONE',  ( -0.000000000000000000, -0.000000000000000000, 1.000000000000000000 ) ) ;
#668 = EDGE_CURVE ( 'NONE', #325, #476, #389, .T. ) ;
#669 = ORIENTED_EDGE ( 'NONE', *, *, #473, .F. ) ;
#670 = DIRECTION ( 'NONE',  ( 1.000000000000000000, 0.000000000000000000, 1.365923996832130870E-16 ) ) ;
#671 = DIRECTION ( 'NONE',  ( 0.000000000000000000, 1.000000000000000000, -0.000000000000000000 ) ) ;
#672 = DIRECTION ( 'NONE',  ( 0.000000000000000000, 0.000000000000000000, -1.000000000000000000 ) ) ;
#673 = CARTESIAN_POINT ( 'NONE',  ( 0.000000000000000000, -0.1000000000000000056, -2.000000000000000000 ) ) ;
#674 = VERTEX_POINT ( 'NONE', #276 ) ;
#675 = EDGE_CURVE ( 'NONE', #255, #258, #588, .T. ) ;
#676 = CYLINDRICAL_SURFACE ( 'NONE', #457, 0.08267716535433072833 ) ;
#677 = CARTESIAN_POINT ( 'NONE',  ( -0.2500000000000004996, 0.2500000000000000000, 0.2049180327868856122 ) ) ;
#678 = ORIENTED_EDGE ( 'NONE', *, *, #128, .T. ) ;
#679 = DIRECTION ( 'NONE',  ( 2.185478394931410821E-16, 0.000000000000000000, 1.000000000000000000 ) ) ;
#680 = CARTESIAN_POINT ( 'NONE',  ( 0.000000000000000000, 0.000000000000000000, -2.000000000000000000 ) ) ;
#681 = ORIENTED_EDGE ( 'NONE', *, *, #743, .F. ) ;
#682 = VECTOR ( 'NONE', #598, 39.37007874015748143 ) ;
#683 = PLANE ( 'NONE',  #552 ) ;
#684 = DIRECTION ( 'NONE',  ( 0.000000000000000000, 0.000000000000000000, 1.000000000000000000 ) ) ;
#685 = EDGE_CURVE ( 'NONE', #321, #691, #323, .T. ) ;
#686 = ORIENTED_EDGE ( 'NONE', *, *, #384, .F. ) ;
#687 = DIRECTION ( 'NONE',  ( -0.000000000000000000, -0.000000000000000000, 1.000000000000000000 ) ) ;
#688 = CARTESIAN_POINT ( 'NONE',  ( -0.1250000000000009992, 0.3999999999999996891, -2.170081967213114638 ) ) ;
#689 = VECTOR ( 'NONE', #659, 39.37007874015748143 ) ;
#690 = ADVANCED_FACE ( 'NONE', ( #447, #443, #517, #511 ), #213, .T. ) ;
#691 = VERTEX_POINT ( 'NONE', #333 ) ;
#692 = CARTESIAN_POINT ( 'NONE',  ( 0.000000000000000000, -0.1000000000000000056, 0.000000000000000000 ) ) ;
#693 = CARTESIAN_POINT ( 'NONE',  ( 2.549999999999999822, 0.000000000000000000, -2.000000000000000000 ) ) ;
#694 = ORIENTED_EDGE ( 'NONE', *, *, #144, .T. ) ;
#695 = VECTOR ( 'NONE', #687, 39.37007874015748143 ) ;
#696 = CARTESIAN_POINT ( 'NONE',  ( -0.1250000000000009992, 0.2500000000000000000, -2.170081967213114638 ) ) ;
#697 = DIRECTION ( 'NONE',  ( -0.000000000000000000, -1.000000000000000000, -0.000000000000000000 ) ) ;
#698 = EDGE_LOOP ( 'NONE', ( #245, #435, #27, #575, #596, #736 ) ) ;
#699 = VECTOR ( 'NONE', #19, 39.37007874015748143 ) ;
#700 = CC_DESIGN_APPROVAL ( #10, ( #515 ) ) ;
#701 = EDGE_CURVE ( 'NONE', #332, #674, #4, .T. ) ;
#702 = CYLINDRICAL_SURFACE ( 'NONE', #527, 0.08267716535433089486 ) ;
#703 = LINE ( 'NONE', #641, #699 ) ;
#704 = AXIS2_PLACEMENT_3D ( 'NONE', #256, #59, #728 ) ;
#705 = EDGE_LOOP ( 'NONE', ( #532, #611, #551, #170 ) ) ;
#706 = DIRECTION ( 'NONE',  ( 0.000000000000000000, 0.000000000000000000, 1.000000000000000000 ) ) ;
#707 = ORIENTED_EDGE ( 'NONE', *, *, #345, .F. ) ;
#708 = PERSON_AND_ORGANIZATION ( #132, #595 ) ;
#709 = PLANE ( 'NONE',  #755 ) ;
#710 = ORIENTED_EDGE ( 'NONE', *, *, #781, .T. ) ;
#711 = CALENDAR_DATE ( 2026, 3, 5 ) ;
#712 = DIRECTION ( 'NONE',  ( 0.000000000000000000, -0.000000000000000000, 1.000000000000000000 ) ) ;
#713 = VERTEX_POINT ( 'NONE', #639 ) ;
#714 = EDGE_CURVE ( 'NONE', #230, #91, #449, .T. ) ;
#715 = DATE_AND_TIME ( #463, #350 ) ;
#716 = DIRECTION ( 'NONE',  ( -0.000000000000000000, -1.000000000000000000, -0.000000000000000000 ) ) ;
#717 = LINE ( 'NONE', #411, #689 ) ;
#718 = ORIENTED_EDGE ( 'NONE', *, *, #322, .F. ) ;
#719 = PERSON_AND_ORGANIZATION ( #132, #595 ) ;
#720 = CC_DESIGN_PERSON_AND_ORGANIZATION_ASSIGNMENT ( #38, #340, ( #559 ) ) ;
#721 = FACE_OUTER_BOUND ( 'NONE', #134, .T. ) ;
#722 = CARTESIAN_POINT ( 'NONE',  ( 1.800000000000000266, 0.2500000000000000000, -1.191203384126078291 ) ) ;
#723 = EDGE_CURVE ( 'NONE', #348, #541, #287, .T. ) ;
#724 = VECTOR ( 'NONE', #188, 39.37007874015748143 ) ;
#725 = LINE ( 'NONE', #178, #682 ) ;
#726 = ORIENTED_EDGE ( 'NONE', *, *, #31, .F. ) ;
#727 = AXIS2_PLACEMENT_3D ( 'NONE', #187, #247, #613 ) ;
#728 = DIRECTION ( 'NONE',  ( 0.000000000000000000, 0.000000000000000000, -1.000000000000000000 ) ) ;
#729 = VECTOR ( 'NONE', #769, 39.37007874015748143 ) ;
#730 = CARTESIAN_POINT ( 'NONE',  ( 1.799999999999999600, 0.2500000000000000000, 9.834652777191345614E-16 ) ) ;
#731 = EDGE_LOOP ( 'NONE', ( #159, #776 ) ) ;
#732 = COORDINATED_UNIVERSAL_TIME_OFFSET ( 6, 0, .BEHIND. ) ;
#733 = LINE ( 'NONE', #118, #315 ) ;
#734 = CARTESIAN_POINT ( 'NONE',  ( 2.523710690196430868E-17, 0.2500000000000000000, 0.2049180327868855567 ) ) ;
#735 = ADVANCED_FACE ( 'NONE', ( #21 ), #702, .F. ) ;
#736 = ORIENTED_EDGE ( 'NONE', *, *, #299, .F. ) ;
#737 = DIRECTION ( 'NONE',  ( 0.000000000000000000, -1.000000000000000000, 0.000000000000000000 ) ) ;
#738 = LINE ( 'NONE', #677, #623 ) ;
#739 = ORIENTED_EDGE ( 'NONE', *, *, #179, .T. ) ;
#740 = CARTESIAN_POINT ( 'NONE',  ( 2.800000000000000266, 0.3999999999999996891, -1.191203384126077847 ) ) ;
#741 = CARTESIAN_POINT ( 'NONE',  ( 4.881279862456363897E-16, 0.000000000000000000, -1.191203384126078957 ) ) ;
#742 = EDGE_LOOP ( 'NONE', ( #583, #754, #304, #360 ) ) ;
#743 = EDGE_CURVE ( 'NONE', #763, #262, #268, .T. ) ;
#744 = CARTESIAN_POINT ( 'NONE',  ( 2.799999999999999822, 0.2500000000000000000, -6.119339505807949412E-16 ) ) ;
#745 = APPROVAL ( #474, 'UNSPECIFIED' ) ;
#746 = DIRECTION ( 'NONE',  ( -0.000000000000000000, -1.000000000000000000, -0.000000000000000000 ) ) ;
#747 = ORIENTED_EDGE ( 'NONE', *, *, #714, .F. ) ;
#748 = CARTESIAN_POINT ( 'NONE',  ( 0.000000000000000000, 0.000000000000000000, 0.000000000000000000 ) ) ;
#749 = ADVANCED_FACE ( 'NONE', ( #208 ), #396, .F. ) ;
#750 = LINE ( 'NONE', #330, #95 ) ;
#751 = ORIENTED_EDGE ( 'NONE', *, *, #23, .T. ) ;
#752 = DIRECTION ( 'NONE',  ( 0.000000000000000000, 0.000000000000000000, 1.000000000000000000 ) ) ;
#753 = PLANE ( 'NONE',  #177 ) ;
#754 = ORIENTED_EDGE ( 'NONE', *, *, #67, .T. ) ;
#755 = AXIS2_PLACEMENT_3D ( 'NONE', #289, #712, #232 ) ;
#756 = DIRECTION ( 'NONE',  ( 1.000000000000000000, 0.000000000000000000, 1.365923996832130870E-16 ) ) ;
#757 = DIRECTION ( 'NONE',  ( -0.000000000000000000, -1.000000000000000000, -0.000000000000000000 ) ) ;
#758 = ORIENTED_EDGE ( 'NONE', *, *, #238, .F. ) ;
#759 = ADVANCED_FACE ( 'NONE', ( #200 ), #643, .T. ) ;
#760 = AXIS2_PLACEMENT_3D ( 'NONE', #696, #452, #580 ) ;
#761 = DIRECTION ( 'NONE',  ( 0.000000000000000000, -1.000000000000000000, 0.000000000000000000 ) ) ;
#762 = CYLINDRICAL_SURFACE ( 'NONE', #543, 0.08267716535433061731 ) ;
#763 = VERTEX_POINT ( 'NONE', #329 ) ;
#764 = VECTOR ( 'NONE', #644, 39.37007874015748143 ) ;
#765 = DIRECTION ( 'NONE',  ( 0.000000000000000000, 0.000000000000000000, -1.000000000000000000 ) ) ;
#766 = LINE ( 'NONE', #448, #764 ) ;
#767 = VECTOR ( 'NONE', #135, 39.37007874015748143 ) ;
#768 = ORIENTED_EDGE ( 'NONE', *, *, #185, .F. ) ;
#769 = DIRECTION ( 'NONE',  ( -1.000000000000000000, -0.000000000000000000, -0.000000000000000000 ) ) ;
#770 = ORIENTED_EDGE ( 'NONE', *, *, #556, .T. ) ;
#771 = LINE ( 'NONE', #110, #729 ) ;
#772 = EDGE_CURVE ( 'NONE', #567, #370, #576, .T. ) ;
#773 = ORIENTED_EDGE ( 'NONE', *, *, #668, .F. ) ;
#774 = APPROVAL_DATE_TIME ( #715, #492 ) ;
#775 = DIRECTION ( 'NONE',  ( 0.000000000000000000, -1.000000000000000000, 0.000000000000000000 ) ) ;
#776 = ORIENTED_EDGE ( 'NONE', *, *, #67, .F. ) ;
#777 = EDGE_CURVE ( 'NONE', #100, #456, #500, .T. ) ;
#778 = DATE_AND_TIME ( #402, #513 ) ;
#779 = LINE ( 'NONE', #586, #787 ) ;
#780 = ORIENTED_EDGE ( 'NONE', *, *, #556, .F. ) ;
#781 = EDGE_CURVE ( 'NONE', #13, #365, #292, .T. ) ;
#782 = CARTESIAN_POINT ( 'NONE',  ( 2.549999999999999822, -0.1000000000000000056, -0.1912033841260781519 ) ) ;
#783 = DIRECTION ( 'NONE',  ( -0.000000000000000000, -1.000000000000000000, -0.000000000000000000 ) ) ;
#784 = ORIENTED_EDGE ( 'NONE', *, *, #318, .T. ) ;
#785 = DIRECTION ( 'NONE',  ( 1.000000000000000000, 0.000000000000000000, 0.000000000000000000 ) ) ;
#786 = ORIENTED_EDGE ( 'NONE', *, *, #193, .T. ) ;
#787 = VECTOR ( 'NONE', #282, 39.37007874015748143 ) ;
#788 = APPROVAL_DATE_TIME ( #125, #10 ) ;
#789 = FACE_BOUND ( 'NONE', #266, .T. ) ;
#790 = CIRCLE ( 'NONE', #205, 0.08267716535433061731 ) ;
#791 = CARTESIAN_POINT ( 'NONE',  ( 2.675000000000000266, -0.1000000000000000056, -2.087404801858783632 ) ) ;
#792 = ORIENTED_EDGE ( 'NONE', *, *, #77, .T. ) ;
ENDSEC;
END-ISO-10303-21;
