ISO-10303-21;
HEADER;
FILE_DESCRIPTION (( 'STEP AP203' ),
    '1' );
FILE_NAME ('lidTpo.STEP',
    '2026-05-03T23:56:27',
    ( '' ),
    ( '' ),
    'SwSTEP 2.0',
    'SolidWorks 2025',
    '' );
FILE_SCHEMA (( 'CONFIG_CONTROL_DESIGN' ));
ENDSEC;

DATA;
#1 = CARTESIAN_POINT ( 'NONE',  ( 2.750000000000000000, 0.2500000000000000000, -1.287304747123747095 ) ) ;
#2 = VERTEX_POINT ( 'NONE', #349 ) ;
#3 = CARTESIAN_POINT ( 'NONE',  ( 0.3000000000000000999, 0.2500000000000000000, -0.2999999999999999889 ) ) ;
#4 = ORIENTED_EDGE ( 'NONE', *, *, #712, .F. ) ;
#5 = AXIS2_PLACEMENT_3D ( 'NONE', #290, #245, #186 ) ;
#6 = APPROVAL_STATUS ( 'not_yet_approved' ) ;
#7 = CARTESIAN_POINT ( 'NONE',  ( 2.925000000000000266, 0.000000000000000000, -0.04232283464566910514 ) ) ;
#8 = AXIS2_PLACEMENT_3D ( 'NONE', #22, #359, #537 ) ;
#9 = CARTESIAN_POINT ( 'NONE',  ( 0.000000000000000000, 0.000000000000000000, -1.287304747123747095 ) ) ;
#10 = EDGE_CURVE ( 'NONE', #470, #562, #243, .T. ) ;
#11 = APPROVAL_DATE_TIME ( #456, #255 ) ;
#12 = CARTESIAN_POINT ( 'NONE',  ( 2.925000000000000266, 0.2500000000000000000, -2.457677165354330562 ) ) ;
#13 = ORIENTED_EDGE ( 'NONE', *, *, #712, .T. ) ;
#14 = DIRECTION ( 'NONE',  ( 0.000000000000000000, 0.000000000000000000, 1.000000000000000000 ) ) ;
#15 = CARTESIAN_POINT ( 'NONE',  ( 0.000000000000000000, 0.000000000000000000, 0.000000000000000000 ) ) ;
#16 = EDGE_CURVE ( 'NONE', #407, #490, #518, .T. ) ;
#17 = DIRECTION ( 'NONE',  ( 0.000000000000000000, 1.000000000000000000, 0.000000000000000000 ) ) ;
#18 = CARTESIAN_POINT ( 'NONE',  ( 3.049999999999999822, 0.2500000000000000000, -2.500000000000000000 ) ) ;
#19 = VECTOR ( 'NONE', #258, 39.37007874015748143 ) ;
#20 = MANIFOLD_SOLID_BREP ( 'Cut-Extrude1', #241 ) ;
#21 = EDGE_CURVE ( 'NONE', #32, #674, #179, .T. ) ;
#22 = CARTESIAN_POINT ( 'NONE',  ( 2.925000000000000266, 0.000000000000000000, -0.1250000000000000000 ) ) ;
#23 = CC_DESIGN_DATE_AND_TIME_ASSIGNMENT ( #174, #405, ( #392 ) ) ;
#24 = LINE ( 'NONE', #714, #97 ) ;
#25 = ORIENTED_EDGE ( 'NONE', *, *, #402, .T. ) ;
#26 = PLANE ( 'NONE',  #61 ) ;
#27 = CARTESIAN_POINT ( 'NONE',  ( 0.000000000000000000, 0.2500000000000000000, -2.500000000000000000 ) ) ;
#28 = ORIENTED_EDGE ( 'NONE', *, *, #534, .F. ) ;
#29 = AXIS2_PLACEMENT_3D ( 'NONE', #157, #226, #673 ) ;
#30 = DIRECTION ( 'NONE',  ( 1.000000000000000000, 0.000000000000000000, -1.302023151946091778E-16 ) ) ;
#31 = DIRECTION ( 'NONE',  ( 0.000000000000000000, 0.000000000000000000, -1.000000000000000000 ) ) ;
#32 = VERTEX_POINT ( 'NONE', #642 ) ;
#33 = ADVANCED_FACE ( 'NONE', ( #468 ), #360, .F. ) ;
#34 = VECTOR ( 'NONE', #554, 39.37007874015748143 ) ;
#35 = DIRECTION ( 'NONE',  ( -0.000000000000000000, -1.000000000000000000, -0.000000000000000000 ) ) ;
#36 = DIRECTION ( 'NONE',  ( -0.000000000000000000, -1.000000000000000000, -0.000000000000000000 ) ) ;
#37 = ORIENTED_EDGE ( 'NONE', *, *, #592, .T. ) ;
#38 = CARTESIAN_POINT ( 'NONE',  ( 0.1250000000000000000, 0.000000000000000000, -0.04232283464566936187 ) ) ;
#39 = FACE_BOUND ( 'NONE', #426, .T. ) ;
#40 = ORIENTED_EDGE ( 'NONE', *, *, #584, .T. ) ;
#41 = VECTOR ( 'NONE', #517, 39.37007874015748143 ) ;
#42 = PERSON_AND_ORGANIZATION_ROLE ( 'design_owner' ) ;
#43 = DIRECTION ( 'NONE',  ( 1.000000000000000000, -0.000000000000000000, 0.000000000000000000 ) ) ;
#44 = VERTEX_POINT ( 'NONE', #346 ) ;
#45 = VECTOR ( 'NONE', #35, 39.37007874015748143 ) ;
#46 = DIRECTION ( 'NONE',  ( 1.000000000000000000, -0.000000000000000000, 0.000000000000000000 ) ) ;
#47 = EDGE_CURVE ( 'NONE', #305, #645, #129, .T. ) ;
#48 = DIRECTION ( 'NONE',  ( 1.000000000000000000, -0.000000000000000000, 0.000000000000000000 ) ) ;
#49 = CC_DESIGN_SECURITY_CLASSIFICATION ( #687, ( #710 ) ) ;
#50 = EDGE_LOOP ( 'NONE', ( #320, #449, #28, #131 ) ) ;
#51 = CYLINDRICAL_SURFACE ( 'NONE', #427, 0.08267716535433035363 ) ;
#52 = PLANE ( 'NONE',  #29 ) ;
#53 = ORIENTED_EDGE ( 'NONE', *, *, #109, .F. ) ;
#54 =( NAMED_UNIT ( * ) PLANE_ANGLE_UNIT ( ) SI_UNIT ( $, .RADIAN. ) );
#55 = DIRECTION ( 'NONE',  ( 1.037615792498257534E-16, 0.000000000000000000, 1.000000000000000000 ) ) ;
#56 = ORIENTED_EDGE ( 'NONE', *, *, #690, .T. ) ;
#57 = EDGE_CURVE ( 'NONE', #196, #252, #583, .T. ) ;
#58 = VECTOR ( 'NONE', #411, 39.37007874015748143 ) ;
#59 = LINE ( 'NONE', #176, #67 ) ;
#60 = VERTEX_POINT ( 'NONE', #208 ) ;
#61 = AXIS2_PLACEMENT_3D ( 'NONE', #148, #30, #253 ) ;
#62 = DIRECTION ( 'NONE',  ( 1.000000000000000000, -0.000000000000000000, 0.000000000000000000 ) ) ;
#63 = EDGE_LOOP ( 'NONE', ( #636, #421, #283, #56 ) ) ;
#64 = COORDINATED_UNIVERSAL_TIME_OFFSET ( 6, 0, .BEHIND. ) ;
#65 = ADVANCED_FACE ( 'NONE', ( #139 ), #535, .F. ) ;
#66 = DIRECTION ( 'NONE',  ( 0.000000000000000000, 1.000000000000000000, 0.000000000000000000 ) ) ;
#67 = VECTOR ( 'NONE', #242, 39.37007874015748143 ) ;
#68 = ORIENTED_EDGE ( 'NONE', *, *, #534, .T. ) ;
#69 = CARTESIAN_POINT ( 'NONE',  ( 2.750000000000000000, 0.2500000000000000000, -0.2999999999999999889 ) ) ;
#70 = ORIENTED_EDGE ( 'NONE', *, *, #180, .F. ) ;
#71 = DIRECTION ( 'NONE',  ( -0.000000000000000000, -1.000000000000000000, -0.000000000000000000 ) ) ;
#72 = ORIENTED_EDGE ( 'NONE', *, *, #109, .T. ) ;
#73 = CARTESIAN_POINT ( 'NONE',  ( 2.164662230530878251, 0.2500000000000000000, -2.336382864352714694 ) ) ;
#74 = CARTESIAN_POINT ( 'NONE',  ( 0.000000000000000000, 0.000000000000000000, -2.336382864352714694 ) ) ;
#75 = CIRCLE ( 'NONE', #526, 0.08267716535433089486 ) ;
#76 = ADVANCED_FACE ( 'NONE', ( #380, #263, #594, #653, #528 ), #436, .T. ) ;
#77 = CARTESIAN_POINT ( 'NONE',  ( 3.049999999999999822, 0.2500000000000000000, 0.000000000000000000 ) ) ;
#78 = CARTESIAN_POINT ( 'NONE',  ( 0.000000000000000000, 0.2500000000000000000, -0.2999999999999999889 ) ) ;
#79 = ORIENTED_EDGE ( 'NONE', *, *, #294, .T. ) ;
#80 = LINE ( 'NONE', #191, #367 ) ;
#81 = DIRECTION ( 'NONE',  ( 0.000000000000000000, 0.000000000000000000, 1.000000000000000000 ) ) ;
#82 = ORIENTED_EDGE ( 'NONE', *, *, #548, .F. ) ;
#83 = CARTESIAN_POINT ( 'NONE',  ( 0.1250000000000000000, 0.2500000000000000000, -0.1250000000000000000 ) ) ;
#84 = DIRECTION ( 'NONE',  ( 0.000000000000000000, 0.000000000000000000, 1.000000000000000000 ) ) ;
#85 = ORIENTED_EDGE ( 'NONE', *, *, #681, .F. ) ;
#86 = CARTESIAN_POINT ( 'NONE',  ( 0.9188036795353057284, 0.2500000000000000000, -1.287304747123747095 ) ) ;
#87 = CARTESIAN_POINT ( 'NONE',  ( 0.000000000000000000, 0.2500000000000000000, 0.000000000000000000 ) ) ;
#88 = EDGE_LOOP ( 'NONE', ( #412, #640, #703, #625 ) ) ;
#89 = DIRECTION ( 'NONE',  ( 0.000000000000000000, 0.000000000000000000, 1.000000000000000000 ) ) ;
#90 = FACE_OUTER_BOUND ( 'NONE', #654, .T. ) ;
#91 = ORIENTED_EDGE ( 'NONE', *, *, #317, .F. ) ;
#92 = PLANE ( 'NONE',  #125 ) ;
#93 = ORIENTED_EDGE ( 'NONE', *, *, #410, .T. ) ;
#94 = EDGE_CURVE ( 'NONE', #565, #305, #135, .T. ) ;
#95 = AXIS2_PLACEMENT_3D ( 'NONE', #188, #416, #337 ) ;
#96 = CC_DESIGN_PERSON_AND_ORGANIZATION_ASSIGNMENT ( #466, #514, ( #710 ) ) ;
#97 = VECTOR ( 'NONE', #701, 39.37007874015748143 ) ;
#98 = CARTESIAN_POINT ( 'NONE',  ( 2.925000000000000266, 0.000000000000000000, -2.457677165354330562 ) ) ;
#99 = DIRECTION ( 'NONE',  ( 0.000000000000000000, 1.000000000000000000, 0.000000000000000000 ) ) ;
#100 = ORIENTED_EDGE ( 'NONE', *, *, #280, .T. ) ;
#101 = VECTOR ( 'NONE', #46, 39.37007874015748143 ) ;
#102 = CARTESIAN_POINT ( 'NONE',  ( 0.1250000000000000278, 0.000000000000000000, -0.2076771653543306451 ) ) ;
#103 = LINE ( 'NONE', #327, #323 ) ;
#104 = VECTOR ( 'NONE', #417, 39.37007874015748143 ) ;
#105 = APPROVAL_PERSON_ORGANIZATION ( #719, #255, #443 ) ;
#106 = VERTEX_POINT ( 'NONE', #597 ) ;
#107 = CARTESIAN_POINT ( 'NONE',  ( 0.000000000000000000, 0.2500000000000000000, -2.336382864352714694 ) ) ;
#108 = CARTESIAN_POINT ( 'NONE',  ( 0.1250000000000000000, 0.000000000000000000, -0.04232283464566936187 ) ) ;
#109 = EDGE_CURVE ( 'NONE', #490, #407, #363, .T. ) ;
#110 = ORIENTED_EDGE ( 'NONE', *, *, #94, .T. ) ;
#111 = AXIS2_PLACEMENT_3D ( 'NONE', #27, #489, #434 ) ;
#112 = DIRECTION ( 'NONE',  ( 0.000000000000000000, 1.000000000000000000, 0.000000000000000000 ) ) ;
#113 = ORIENTED_EDGE ( 'NONE', *, *, #440, .T. ) ;
#114 = DATE_AND_TIME ( #228, #331 ) ;
#115 = LINE ( 'NONE', #515, #58 ) ;
#116 = EDGE_LOOP ( 'NONE', ( #162, #511, #460, #629 ) ) ;
#117 = VECTOR ( 'NONE', #655, 39.37007874015748143 ) ;
#118 = EDGE_CURVE ( 'NONE', #146, #2, #259, .T. ) ;
#119 = CALENDAR_DATE ( 2026, 3, 5 ) ;
#120 = DIRECTION ( 'NONE',  ( -0.000000000000000000, -1.000000000000000000, -0.000000000000000000 ) ) ;
#121 = ORIENTED_EDGE ( 'NONE', *, *, #496, .F. ) ;
#122 = COORDINATED_UNIVERSAL_TIME_OFFSET ( 6, 0, .BEHIND. ) ;
#123 = CC_DESIGN_PERSON_AND_ORGANIZATION_ASSIGNMENT ( #676, #634, ( #392 ) ) ;
#124 = CARTESIAN_POINT ( 'NONE',  ( 0.9188036795353059505, 0.000000000000000000, -1.196303662848225799E-16 ) ) ;
#125 = AXIS2_PLACEMENT_3D ( 'NONE', #502, #551, #266 ) ;
#126 = ORIENTED_EDGE ( 'NONE', *, *, #118, .T. ) ;
#127 = APPROVAL_STATUS ( 'not_yet_approved' ) ;
#128 = CARTESIAN_POINT ( 'NONE',  ( 3.049999999999999822, 0.000000000000000000, 0.000000000000000000 ) ) ;
#129 = LINE ( 'NONE', #9, #684 ) ;
#130 = LINE ( 'NONE', #697, #19 ) ;
#131 = ORIENTED_EDGE ( 'NONE', *, *, #463, .T. ) ;
#132 = ADVANCED_FACE ( 'NONE', ( #90 ), #315, .T. ) ;
#133 = ADVANCED_BREP_SHAPE_REPRESENTATION ( 'lidTpo', ( #20, #295 ), #484 ) ;
#134 = CARTESIAN_POINT ( 'NONE',  ( 0.9188036795353057284, 0.2500000000000000000, -1.287304747123747095 ) ) ;
#135 = LINE ( 'NONE', #542, #552 ) ;
#136 = AXIS2_PLACEMENT_3D ( 'NONE', #604, #644, #81 ) ;
#137 = ORIENTED_EDGE ( 'NONE', *, *, #592, .F. ) ;
#138 = CARTESIAN_POINT ( 'NONE',  ( 0.1250000000000000000, 0.2500000000000000000, -0.04232283464566936187 ) ) ;
#139 = FACE_OUTER_BOUND ( 'NONE', #353, .T. ) ;
#140 = AXIS2_PLACEMENT_3D ( 'NONE', #262, #488, #713 ) ;
#141 = ORIENTED_EDGE ( 'NONE', *, *, #361, .T. ) ;
#142 = EDGE_CURVE ( 'NONE', #216, #586, #75, .T. ) ;
#143 = APPROVAL_PERSON_ORGANIZATION ( #225, #341, #577 ) ;
#144 = CARTESIAN_POINT ( 'NONE',  ( 0.000000000000000000, 0.2500000000000000000, -2.336382864352714694 ) ) ;
#145 = PLANE ( 'NONE',  #647 ) ;
#146 = VERTEX_POINT ( 'NONE', #18 ) ;
#147 = PRODUCT_DEFINITION_SHAPE ( 'NONE', 'NONE',  #392 ) ;
#148 = CARTESIAN_POINT ( 'NONE',  ( 0.9188036795353059505, 0.2500000000000000000, -1.196303662848225799E-16 ) ) ;
#149 = FACE_OUTER_BOUND ( 'NONE', #88, .T. ) ;
#150 = EDGE_LOOP ( 'NONE', ( #598, #68, #85, #711 ) ) ;
#151 = FACE_OUTER_BOUND ( 'NONE', #116, .T. ) ;
#152 = PLANE ( 'NONE',  #716 ) ;
#153 = ADVANCED_FACE ( 'NONE', ( #589 ), #152, .F. ) ;
#154 = ORIENTED_EDGE ( 'NONE', *, *, #668, .F. ) ;
#155 = VECTOR ( 'NONE', #71, 39.37007874015748143 ) ;
#156 = VECTOR ( 'NONE', #700, 39.37007874015748143 ) ;
#157 = CARTESIAN_POINT ( 'NONE',  ( 0.3000000000000000999, 0.2500000000000000000, -3.112847377494773589E-17 ) ) ;
#158 = ORIENTED_EDGE ( 'NONE', *, *, #220, .T. ) ;
#159 = EDGE_CURVE ( 'NONE', #562, #503, #475, .T. ) ;
#160 = CALENDAR_DATE ( 2026, 3, 5 ) ;
#161 = CARTESIAN_POINT ( 'NONE',  ( 0.3000000000000000999, 0.000000000000000000, -3.112847377494773589E-17 ) ) ;
#162 = ORIENTED_EDGE ( 'NONE', *, *, #725, .F. ) ;
#163 = CIRCLE ( 'NONE', #704, 0.08267716535433035363 ) ;
#164 = DIRECTION ( 'NONE',  ( -0.000000000000000000, -1.000000000000000000, -0.000000000000000000 ) ) ;
#165 = LINE ( 'NONE', #616, #611 ) ;
#166 = VERTEX_POINT ( 'NONE', #486 ) ;
#167 = VECTOR ( 'NONE', #499, 39.37007874015748143 ) ;
#168 = CARTESIAN_POINT ( 'NONE',  ( 2.925000000000000266, 0.000000000000000000, -2.375000000000000000 ) ) ;
#169 = EDGE_CURVE ( 'NONE', #106, #301, #709, .T. ) ;
#170 = DIRECTION ( 'NONE',  ( 0.000000000000000000, 1.000000000000000000, 0.000000000000000000 ) ) ;
#171 = ORIENTED_EDGE ( 'NONE', *, *, #668, .T. ) ;
#172 = DIRECTION ( 'NONE',  ( -0.000000000000000000, -1.000000000000000000, -0.000000000000000000 ) ) ;
#173 = ORIENTED_EDGE ( 'NONE', *, *, #627, .T. ) ;
#174 = DATE_AND_TIME ( #281, #358 ) ;
#175 = AXIS2_PLACEMENT_3D ( 'NONE', #394, #99, #556 ) ;
#176 = CARTESIAN_POINT ( 'NONE',  ( 0.000000000000000000, 0.000000000000000000, -2.500000000000000000 ) ) ;
#177 = VERTEX_POINT ( 'NONE', #531 ) ;
#178 = CARTESIAN_POINT ( 'NONE',  ( 2.925000000000000266, 0.000000000000000000, -0.1250000000000000000 ) ) ;
#179 = LINE ( 'NONE', #15, #41 ) ;
#180 = EDGE_CURVE ( 'NONE', #201, #674, #24, .T. ) ;
#181 = CC_DESIGN_PERSON_AND_ORGANIZATION_ASSIGNMENT ( #400, #342, ( #687 ) ) ;
#182 = CARTESIAN_POINT ( 'NONE',  ( 2.925000000000000266, 0.2500000000000000000, -0.1250000000000000000 ) ) ;
#183 = EDGE_LOOP ( 'NONE', ( #718, #158 ) ) ;
#184 = APPROVAL_ROLE ( '' ) ;
#185 = DIRECTION ( 'NONE',  ( 0.000000000000000000, 1.000000000000000000, 0.000000000000000000 ) ) ;
#186 = DIRECTION ( 'NONE',  ( -1.000000000000000000, 0.000000000000000000, -0.000000000000000000 ) ) ;
#187 = EDGE_CURVE ( 'NONE', #501, #216, #481, .T. ) ;
#188 = CARTESIAN_POINT ( 'NONE',  ( 2.925000000000000266, 0.000000000000000000, -2.375000000000000000 ) ) ;
#189 = VECTOR ( 'NONE', #292, 39.37007874015748143 ) ;
#190 = ORIENTED_EDGE ( 'NONE', *, *, #402, .F. ) ;
#191 = CARTESIAN_POINT ( 'NONE',  ( 2.164662230530878251, 0.000000000000000000, -0.000000000000000000 ) ) ;
#192 = CARTESIAN_POINT ( 'NONE',  ( 0.000000000000000000, 0.2500000000000000000, 0.000000000000000000 ) ) ;
#193 = CARTESIAN_POINT ( 'NONE',  ( 0.1250000000000000000, 0.2500000000000000000, -0.1250000000000000000 ) ) ;
#194 = CARTESIAN_POINT ( 'NONE',  ( 2.164662230530878251, 0.2500000000000000000, 0.000000000000000000 ) ) ;
#195 = VECTOR ( 'NONE', #356, 39.37007874015748143 ) ;
#196 = VERTEX_POINT ( 'NONE', #425 ) ;
#197 = ADVANCED_FACE ( 'NONE', ( #649 ), #145, .F. ) ;
#198 = CARTESIAN_POINT ( 'NONE',  ( 2.925000000000000266, 0.000000000000000000, -2.292322834645669882 ) ) ;
#199 = DIRECTION ( 'NONE',  ( 1.000000000000000000, -0.000000000000000000, 0.000000000000000000 ) ) ;
#200 = AXIS2_PLACEMENT_3D ( 'NONE', #641, #17, #585 ) ;
#201 = VERTEX_POINT ( 'NONE', #656 ) ;
#202 = PLANE ( 'NONE',  #140 ) ;
#203 = DIRECTION ( 'NONE',  ( -1.000000000000000000, 0.000000000000000000, -0.000000000000000000 ) ) ;
#204 = ORIENTED_EDGE ( 'NONE', *, *, #440, .F. ) ;
#205 = UNCERTAINTY_MEASURE_WITH_UNIT (LENGTH_MEASURE( 1.000000000000000082E-05 ), #563, 'distance_accuracy_value', 'NONE');
#206 = DIRECTION ( 'NONE',  ( 1.000000000000000000, -0.000000000000000000, 0.000000000000000000 ) ) ;
#207 = ADVANCED_FACE ( 'NONE', ( #149 ), #600, .T. ) ;
#208 = CARTESIAN_POINT ( 'NONE',  ( 0.1250000000000000278, 0.2500000000000000000, -0.2076771653543306451 ) ) ;
#209 = ORIENTED_EDGE ( 'NONE', *, *, #584, .F. ) ;
#210 = AXIS2_PLACEMENT_3D ( 'NONE', #419, #308, #429 ) ;
#211 = EDGE_CURVE ( 'NONE', #44, #509, #404, .T. ) ;
#212 = PLANE ( 'NONE',  #576 ) ;
#213 = ORIENTED_EDGE ( 'NONE', *, *, #280, .F. ) ;
#214 = APPROVAL_STATUS ( 'not_yet_approved' ) ;
#215 = FACE_BOUND ( 'NONE', #727, .T. ) ;
#216 = VERTEX_POINT ( 'NONE', #275 ) ;
#217 = FACE_OUTER_BOUND ( 'NONE', #329, .T. ) ;
#218 = DIRECTION ( 'NONE',  ( 0.000000000000000000, 0.000000000000000000, 1.000000000000000000 ) ) ;
#219 = ORIENTED_EDGE ( 'NONE', *, *, #516, .T. ) ;
#220 = EDGE_CURVE ( 'NONE', #177, #707, #587, .T. ) ;
#221 = VECTOR ( 'NONE', #334, 39.37007874015748143 ) ;
#222 = CARTESIAN_POINT ( 'NONE',  ( 0.000000000000000000, 0.000000000000000000, -2.500000000000000000 ) ) ;
#223 = CARTESIAN_POINT ( 'NONE',  ( 0.1250000000000000000, 0.000000000000000000, -0.1250000000000000000 ) ) ;
#224 = ORIENTED_EDGE ( 'NONE', *, *, #285, .F. ) ;
#225 = PERSON_AND_ORGANIZATION ( #232, #619 ) ;
#226 = DIRECTION ( 'NONE',  ( 1.000000000000000000, 0.000000000000000000, -1.037615792498257411E-16 ) ) ;
#227 = ORIENTED_EDGE ( 'NONE', *, *, #420, .F. ) ;
#228 = CALENDAR_DATE ( 2026, 3, 5 ) ;
#229 = EDGE_CURVE ( 'NONE', #565, #452, #454, .T. ) ;
#230 = LINE ( 'NONE', #457, #247 ) ;
#231 = ORIENTED_EDGE ( 'NONE', *, *, #159, .T. ) ;
#232 = PERSON ( 'UNSPECIFIED', 'UNSPECIFIED', 'UNSPECIFIED', ('UNSPECIFIED'), ('UNSPECIFIED'), ('UNSPECIFIED') ) ;
#233 = VECTOR ( 'NONE', #706, 39.37007874015748143 ) ;
#234 = CARTESIAN_POINT ( 'NONE',  ( 2.925000000000000266, 0.000000000000000000, -2.457677165354330562 ) ) ;
#235 = ADVANCED_FACE ( 'NONE', ( #451 ), #212, .F. ) ;
#236 = EDGE_LOOP ( 'NONE', ( #137, #82 ) ) ;
#237 = ORIENTED_EDGE ( 'NONE', *, *, #142, .T. ) ;
#238 = CIRCLE ( 'NONE', #580, 0.08267716535433063119 ) ;
#239 = CARTESIAN_POINT ( 'NONE',  ( 2.750000000000000000, 0.2500000000000000000, -0.2999999999999999889 ) ) ;
#240 = ORIENTED_EDGE ( 'NONE', *, *, #504, .T. ) ;
#241 = CLOSED_SHELL ( 'NONE', ( #677, #366, #386, #33, #432, #646, #306, #197, #525, #702, #65, #235, #132, #207, #153, #76, #326, #698, #630, #339 ) ) ;
#242 = DIRECTION ( 'NONE',  ( 1.000000000000000000, -0.000000000000000000, 0.000000000000000000 ) ) ;
#243 = LINE ( 'NONE', #683, #104 ) ;
#244 = DIRECTION ( 'NONE',  ( 0.000000000000000000, 1.000000000000000000, 0.000000000000000000 ) ) ;
#245 = DIRECTION ( 'NONE',  ( 0.000000000000000000, 0.000000000000000000, -1.000000000000000000 ) ) ;
#246 = DIRECTION ( 'NONE',  ( 0.000000000000000000, 0.000000000000000000, 1.000000000000000000 ) ) ;
#247 = VECTOR ( 'NONE', #680, 39.37007874015748143 ) ;
#248 = DIRECTION ( 'NONE',  ( 0.000000000000000000, 0.000000000000000000, -1.000000000000000000 ) ) ;
#249 = CIRCLE ( 'NONE', #663, 0.08267716535433063119 ) ;
#250 = CARTESIAN_POINT ( 'NONE',  ( 2.750000000000000000, 0.000000000000000000, -1.287304747123747095 ) ) ;
#251 = DIRECTION ( 'NONE',  ( 1.000000000000000000, 0.000000000000000000, 0.000000000000000000 ) ) ;
#252 = VERTEX_POINT ( 'NONE', #497 ) ;
#253 = DIRECTION ( 'NONE',  ( -1.302023151946091778E-16, 0.000000000000000000, -1.000000000000000000 ) ) ;
#254 = DIRECTION ( 'NONE',  ( 0.000000000000000000, 1.000000000000000000, 0.000000000000000000 ) ) ;
#255 = APPROVAL ( #214, 'UNSPECIFIED' ) ;
#256 = VECTOR ( 'NONE', #506, 39.37007874015748143 ) ;
#257 = EDGE_LOOP ( 'NONE', ( #395, #595, #557, #237 ) ) ;
#258 = DIRECTION ( 'NONE',  ( 0.000000000000000000, 0.000000000000000000, 1.000000000000000000 ) ) ;
#259 = LINE ( 'NONE', #364, #424 ) ;
#260 = VECTOR ( 'NONE', #303, 39.37007874015748143 ) ;
#261 = ORIENTED_EDGE ( 'NONE', *, *, #285, .T. ) ;
#262 = CARTESIAN_POINT ( 'NONE',  ( 0.000000000000000000, 0.2500000000000000000, -0.2999999999999999889 ) ) ;
#263 = FACE_BOUND ( 'NONE', #298, .T. ) ;
#264 = ORIENTED_EDGE ( 'NONE', *, *, #446, .T. ) ;
#265 = FACE_OUTER_BOUND ( 'NONE', #63, .T. ) ;
#266 = DIRECTION ( 'NONE',  ( 0.000000000000000000, 0.000000000000000000, 1.000000000000000000 ) ) ;
#267 = EDGE_LOOP ( 'NONE', ( #154, #141, #264, #478 ) ) ;
#268 = AXIS2_PLACEMENT_3D ( 'NONE', #223, #170, #666 ) ;
#269 = APPLICATION_PROTOCOL_DEFINITION ( 'international standard', 'config_control_design', 1994, #387 ) ;
#270 = DIRECTION ( 'NONE',  ( -1.000000000000000000, 0.000000000000000000, 0.000000000000000000 ) ) ;
#271 = ORIENTED_EDGE ( 'NONE', *, *, #21, .T. ) ;
#272 = FACE_BOUND ( 'NONE', #183, .T. ) ;
#273 = EDGE_CURVE ( 'NONE', #452, #645, #723, .T. ) ;
#274 = ORIENTED_EDGE ( 'NONE', *, *, #725, .T. ) ;
#275 = CARTESIAN_POINT ( 'NONE',  ( 2.925000000000000266, 0.2500000000000000000, -0.04232283464566910514 ) ) ;
#276 = ORIENTED_EDGE ( 'NONE', *, *, #569, .T. ) ;
#277 = LINE ( 'NONE', #401, #312 ) ;
#278 = EDGE_LOOP ( 'NONE', ( #335, #276, #715, #693, #403, #409, #173, #261 ) ) ;
#279 = VECTOR ( 'NONE', #120, 39.37007874015748143 ) ;
#280 = EDGE_CURVE ( 'NONE', #455, #166, #398, .T. ) ;
#281 = CALENDAR_DATE ( 2026, 3, 5 ) ;
#282 = DIRECTION ( 'NONE',  ( 0.000000000000000000, 0.000000000000000000, 1.000000000000000000 ) ) ;
#283 = ORIENTED_EDGE ( 'NONE', *, *, #627, .F. ) ;
#284 = SHAPE_DEFINITION_REPRESENTATION ( #147, #133 ) ;
#285 = EDGE_CURVE ( 'NONE', #670, #565, #277, .T. ) ;
#286 = DIRECTION ( 'NONE',  ( 0.000000000000000000, 0.000000000000000000, 1.000000000000000000 ) ) ;
#287 = ORIENTED_EDGE ( 'NONE', *, *, #294, .F. ) ;
#288 = VECTOR ( 'NONE', #172, 39.37007874015748143 ) ;
#289 = CARTESIAN_POINT ( 'NONE',  ( 2.925000000000000266, 0.000000000000000000, -2.292322834645669882 ) ) ;
#290 = CARTESIAN_POINT ( 'NONE',  ( 0.000000000000000000, 0.2500000000000000000, -1.287304747123747095 ) ) ;
#291 = VECTOR ( 'NONE', #314, 39.37007874015748143 ) ;
#292 = DIRECTION ( 'NONE',  ( 1.000000000000000000, -0.000000000000000000, 0.000000000000000000 ) ) ;
#293 = ORIENTED_EDGE ( 'NONE', *, *, #273, .F. ) ;
#294 = EDGE_CURVE ( 'NONE', #166, #487, #500, .T. ) ;
#295 = AXIS2_PLACEMENT_3D ( 'NONE', #658, #383, #379 ) ;
#296 = APPROVAL_DATE_TIME ( #355, #341 ) ;
#297 = DIRECTION ( 'NONE',  ( -0.000000000000000000, 1.000000000000000000, -0.000000000000000000 ) ) ;
#298 = EDGE_LOOP ( 'NONE', ( #435, #338 ) ) ;
#299 = DIRECTION ( 'NONE',  ( 0.000000000000000000, 1.000000000000000000, 0.000000000000000000 ) ) ;
#300 = VECTOR ( 'NONE', #376, 39.37007874015748143 ) ;
#301 = VERTEX_POINT ( 'NONE', #546 ) ;
#302 = EDGE_CURVE ( 'NONE', #106, #32, #621, .T. ) ;
#303 = DIRECTION ( 'NONE',  ( -0.000000000000000000, 1.000000000000000000, -0.000000000000000000 ) ) ;
#304 = CARTESIAN_POINT ( 'NONE',  ( 0.000000000000000000, 0.2500000000000000000, 0.000000000000000000 ) ) ;
#305 = VERTEX_POINT ( 'NONE', #384 ) ;
#306 = ADVANCED_FACE ( 'NONE', ( #729 ), #52, .T. ) ;
#307 = CARTESIAN_POINT ( 'NONE',  ( 2.925000000000000266, 0.2500000000000000000, -0.2076771653543308949 ) ) ;
#308 = DIRECTION ( 'NONE',  ( 0.000000000000000000, 1.000000000000000000, 0.000000000000000000 ) ) ;
#309 = ORIENTED_EDGE ( 'NONE', *, *, #681, .T. ) ;
#310 = FACE_OUTER_BOUND ( 'NONE', #257, .T. ) ;
#311 = CARTESIAN_POINT ( 'NONE',  ( 2.925000000000000266, 0.000000000000000000, -0.04232283464566910514 ) ) ;
#312 = VECTOR ( 'NONE', #662, 39.37007874015748143 ) ;
#313 = EDGE_LOOP ( 'NONE', ( #399, #568, #721, #385 ) ) ;
#314 = DIRECTION ( 'NONE',  ( 1.000000000000000000, -0.000000000000000000, 0.000000000000000000 ) ) ;
#315 = PLANE ( 'NONE',  #111 ) ;
#316 = ORIENTED_EDGE ( 'NONE', *, *, #614, .T. ) ;
#317 = EDGE_CURVE ( 'NONE', #707, #575, #608, .T. ) ;
#318 = DIRECTION ( 'NONE',  ( -1.000000000000000000, 0.000000000000000000, -0.000000000000000000 ) ) ;
#319 = CARTESIAN_POINT ( 'NONE',  ( 2.750000000000000000, 0.2500000000000000000, -1.287304747123747095 ) ) ;
#320 = ORIENTED_EDGE ( 'NONE', *, *, #544, .T. ) ;
#321 = FACE_BOUND ( 'NONE', #494, .T. ) ;
#322 = EDGE_LOOP ( 'NONE', ( #25, #430, #441, #532 ) ) ;
#323 = VECTOR ( 'NONE', #669, 39.37007874015748143 ) ;
#324 = AXIS2_PLACEMENT_3D ( 'NONE', #87, #493, #678 ) ;
#325 = PLANE ( 'NONE',  #328 ) ;
#326 = ADVANCED_FACE ( 'NONE', ( #272, #321, #39, #564, #215 ), #92, .F. ) ;
#327 = CARTESIAN_POINT ( 'NONE',  ( 2.164662230530878251, 0.2500000000000000000, -2.336382864352714694 ) ) ;
#328 = AXIS2_PLACEMENT_3D ( 'NONE', #107, #388, #318 ) ;
#329 = EDGE_LOOP ( 'NONE', ( #482, #13, #445, #91 ) ) ;
#330 = AXIS2_PLACEMENT_3D ( 'NONE', #686, #579, #521 ) ;
#331 = LOCAL_TIME ( 18, 56, 27.00000000000000000, #347 ) ;
#332 = CARTESIAN_POINT ( 'NONE',  ( 0.000000000000000000, 0.000000000000000000, -0.2999999999999999889 ) ) ;
#333 = ORIENTED_EDGE ( 'NONE', *, *, #561, .F. ) ;
#334 = DIRECTION ( 'NONE',  ( -0.000000000000000000, 1.000000000000000000, -0.000000000000000000 ) ) ;
#335 = ORIENTED_EDGE ( 'NONE', *, *, #229, .T. ) ;
#336 = DATE_TIME_ROLE ( 'classification_date' ) ;
#337 = DIRECTION ( 'NONE',  ( 0.000000000000000000, 0.000000000000000000, 1.000000000000000000 ) ) ;
#338 = ORIENTED_EDGE ( 'NONE', *, *, #446, .F. ) ;
#339 = ADVANCED_FACE ( 'NONE', ( #389 ), #448, .F. ) ;
#340 = AXIS2_PLACEMENT_3D ( 'NONE', #574, #66, #519 ) ;
#341 = APPROVAL ( #127, 'UNSPECIFIED' ) ;
#342 = PERSON_AND_ORGANIZATION_ROLE ( 'classification_officer' ) ;
#343 = VECTOR ( 'NONE', #206, 39.37007874015748143 ) ;
#344 = PLANE ( 'NONE',  #391 ) ;
#345 = DIMENSIONAL_EXPONENTS ( 1.000000000000000000, 0.000000000000000000, 0.000000000000000000, 0.000000000000000000, 0.000000000000000000, 0.000000000000000000, 0.000000000000000000 ) ;
#346 = CARTESIAN_POINT ( 'NONE',  ( 2.925000000000000266, 0.2500000000000000000, -2.292322834645669882 ) ) ;
#347 = COORDINATED_UNIVERSAL_TIME_OFFSET ( 6, 0, .BEHIND. ) ;
#348 = CARTESIAN_POINT ( 'NONE',  ( 2.925000000000000266, 0.2500000000000000000, -2.375000000000000000 ) ) ;
#349 = CARTESIAN_POINT ( 'NONE',  ( 3.049999999999999822, 0.000000000000000000, -2.500000000000000000 ) ) ;
#350 = VECTOR ( 'NONE', #55, 39.37007874015748143 ) ;
#351 = EDGE_CURVE ( 'NONE', #670, #252, #103, .T. ) ;
#352 = CARTESIAN_POINT ( 'NONE',  ( 0.000000000000000000, 0.2500000000000000000, -1.287304747123747095 ) ) ;
#353 = EDGE_LOOP ( 'NONE', ( #240, #667, #524, #689 ) ) ;
#354 = AXIS2_PLACEMENT_3D ( 'NONE', #610, #603, #89 ) ;
#355 = DATE_AND_TIME ( #637, #520 ) ;
#356 = DIRECTION ( 'NONE',  ( 1.302023151946091778E-16, 0.000000000000000000, 1.000000000000000000 ) ) ;
#357 = DIRECTION ( 'NONE',  ( 1.000000000000000000, -0.000000000000000000, 0.000000000000000000 ) ) ;
#358 = LOCAL_TIME ( 18, 56, 27.00000000000000000, #64 ) ;
#359 = DIRECTION ( 'NONE',  ( -0.000000000000000000, 1.000000000000000000, -0.000000000000000000 ) ) ;
#360 = PLANE ( 'NONE',  #5 ) ;
#361 = EDGE_CURVE ( 'NONE', #601, #586, #165, .T. ) ;
#362 = DIRECTION ( 'NONE',  ( 0.000000000000000000, 1.000000000000000000, 0.000000000000000000 ) ) ;
#363 = CIRCLE ( 'NONE', #210, 0.08267716535433035363 ) ;
#364 = CARTESIAN_POINT ( 'NONE',  ( 3.049999999999999822, 0.2500000000000000000, -2.500000000000000000 ) ) ;
#365 = EDGE_LOOP ( 'NONE', ( #53, #274, #590, #543 ) ) ;
#366 = ADVANCED_FACE ( 'NONE', ( #414 ), #406, .F. ) ;
#367 = VECTOR ( 'NONE', #246, 39.37007874015748143 ) ;
#368 = CARTESIAN_POINT ( 'NONE',  ( 0.3000000000000000999, 0.2500000000000000000, -0.2999999999999999889 ) ) ;
#369 = DIRECTION ( 'NONE',  ( 0.000000000000000000, 0.000000000000000000, -1.000000000000000000 ) ) ;
#370 = ORIENTED_EDGE ( 'NONE', *, *, #504, .F. ) ;
#371 = CC_DESIGN_APPROVAL ( #341, ( #687 ) ) ;
#372 = LINE ( 'NONE', #596, #530 ) ;
#373 = DIRECTION ( 'NONE',  ( 1.000000000000000000, -0.000000000000000000, 0.000000000000000000 ) ) ;
#374 = EDGE_LOOP ( 'NONE', ( #370, #271, #113, #695 ) ) ;
#375 = DIRECTION ( 'NONE',  ( 0.000000000000000000, 0.000000000000000000, 1.000000000000000000 ) ) ;
#376 = DIRECTION ( 'NONE',  ( 1.000000000000000000, -0.000000000000000000, 0.000000000000000000 ) ) ;
#377 = ORIENTED_EDGE ( 'NONE', *, *, #483, .F. ) ;
#378 = PRODUCT ( 'lidTpo', 'lidTpo', '', ( #438 ) ) ;
#379 = DIRECTION ( 'NONE',  ( 1.000000000000000000, 0.000000000000000000, 0.000000000000000000 ) ) ;
#380 = FACE_BOUND ( 'NONE', #236, .T. ) ;
#381 = AXIS2_PLACEMENT_3D ( 'NONE', #182, #112, #282 ) ;
#382 = ORIENTED_EDGE ( 'NONE', *, *, #492, .T. ) ;
#383 = DIRECTION ( 'NONE',  ( 0.000000000000000000, 0.000000000000000000, 1.000000000000000000 ) ) ;
#384 = CARTESIAN_POINT ( 'NONE',  ( 2.164662230530878251, 0.000000000000000000, -1.287304747123747095 ) ) ;
#385 = ORIENTED_EDGE ( 'NONE', *, *, #453, .T. ) ;
#386 = ADVANCED_FACE ( 'NONE', ( #694 ), #523, .F. ) ;
#387 = APPLICATION_CONTEXT ( 'configuration controlled 3d designs of mechanical parts and assemblies' ) ;
#388 = DIRECTION ( 'NONE',  ( 0.000000000000000000, 0.000000000000000000, -1.000000000000000000 ) ) ;
#389 = FACE_OUTER_BOUND ( 'NONE', #458, .T. ) ;
#390 = ORIENTED_EDGE ( 'NONE', *, *, #211, .F. ) ;
#391 = AXIS2_PLACEMENT_3D ( 'NONE', #469, #632, #567 ) ;
#392 = PRODUCT_DEFINITION ( 'UNKNOWN', '', #710, #591 ) ;
#393 = LENGTH_MEASURE_WITH_UNIT ( LENGTH_MEASURE( 0.02539999999999999897 ), #545 );
#394 = CARTESIAN_POINT ( 'NONE',  ( 2.925000000000000266, 0.2500000000000000000, -2.375000000000000000 ) ) ;
#395 = ORIENTED_EDGE ( 'NONE', *, *, #361, .F. ) ;
#396 = DIRECTION ( 'NONE',  ( -0.000000000000000000, 1.000000000000000000, -0.000000000000000000 ) ) ;
#397 = LOCAL_TIME ( 18, 56, 27.00000000000000000, #665 ) ;
#398 = LINE ( 'NONE', #161, #350 ) ;
#399 = ORIENTED_EDGE ( 'NONE', *, *, #561, .T. ) ;
#400 = PERSON_AND_ORGANIZATION ( #232, #619 ) ;
#401 = CARTESIAN_POINT ( 'NONE',  ( 2.164662230530878251, 0.2500000000000000000, 0.000000000000000000 ) ) ;
#402 = EDGE_CURVE ( 'NONE', #645, #487, #581, .T. ) ;
#403 = ORIENTED_EDGE ( 'NONE', *, *, #472, .T. ) ;
#404 = CIRCLE ( 'NONE', #175, 0.08267716535433035363 ) ;
#405 = DATE_TIME_ROLE ( 'creation_date' ) ;
#406 = CYLINDRICAL_SURFACE ( 'NONE', #480, 0.08267716535433089486 ) ;
#407 = VERTEX_POINT ( 'NONE', #289 ) ;
#408 = CARTESIAN_POINT ( 'NONE',  ( 0.2999999999999999889, 0.2500000000000000000, -1.287304747123747095 ) ) ;
#409 = ORIENTED_EDGE ( 'NONE', *, *, #638, .F. ) ;
#410 = EDGE_CURVE ( 'NONE', #196, #664, #508, .T. ) ;
#411 = DIRECTION ( 'NONE',  ( -0.000000000000000000, -1.000000000000000000, -0.000000000000000000 ) ) ;
#412 = ORIENTED_EDGE ( 'NONE', *, *, #21, .F. ) ;
#413 = APPROVAL_DATE_TIME ( #691, #682 ) ;
#414 = FACE_OUTER_BOUND ( 'NONE', #267, .T. ) ;
#415 = ORIENTED_EDGE ( 'NONE', *, *, #10, .T. ) ;
#416 = DIRECTION ( 'NONE',  ( -0.000000000000000000, 1.000000000000000000, -0.000000000000000000 ) ) ;
#417 = DIRECTION ( 'NONE',  ( 1.037615792498257534E-16, 0.000000000000000000, 1.000000000000000000 ) ) ;
#418 = DIRECTION ( 'NONE',  ( 1.302023151946091778E-16, 0.000000000000000000, 1.000000000000000000 ) ) ;
#419 = CARTESIAN_POINT ( 'NONE',  ( 2.925000000000000266, 0.000000000000000000, -2.375000000000000000 ) ) ;
#420 = EDGE_CURVE ( 'NONE', #509, #44, #163, .T. ) ;
#421 = ORIENTED_EDGE ( 'NONE', *, *, #351, .F. ) ;
#422 = FACE_OUTER_BOUND ( 'NONE', #613, .T. ) ;
#423 = VECTOR ( 'NONE', #286, 39.37007874015748143 ) ;
#424 = VECTOR ( 'NONE', #659, 39.37007874015748143 ) ;
#425 = CARTESIAN_POINT ( 'NONE',  ( 0.9188036795353056174, 0.000000000000000000, -2.336382864352714694 ) ) ;
#426 = EDGE_LOOP ( 'NONE', ( #547, #72 ) ) ;
#427 = AXIS2_PLACEMENT_3D ( 'NONE', #168, #396, #620 ) ;
#428 = CARTESIAN_POINT ( 'NONE',  ( 0.000000000000000000, 0.000000000000000000, -1.287304747123747095 ) ) ;
#429 = DIRECTION ( 'NONE',  ( 0.000000000000000000, 0.000000000000000000, 1.000000000000000000 ) ) ;
#430 = ORIENTED_EDGE ( 'NONE', *, *, #492, .F. ) ;
#431 = CC_DESIGN_APPROVAL ( #682, ( #710 ) ) ;
#432 = ADVANCED_FACE ( 'NONE', ( #685 ), #344, .F. ) ;
#433 = CARTESIAN_POINT ( 'NONE',  ( 0.000000000000000000, 0.2500000000000000000, 0.000000000000000000 ) ) ;
#434 = DIRECTION ( 'NONE',  ( -1.000000000000000000, 0.000000000000000000, -0.000000000000000000 ) ) ;
#435 = ORIENTED_EDGE ( 'NONE', *, *, #142, .F. ) ;
#436 = PLANE ( 'NONE',  #136 ) ;
#437 = VERTEX_POINT ( 'NONE', #510 ) ;
#438 = MECHANICAL_CONTEXT ( 'NONE', #617, 'mechanical' ) ;
#439 = CARTESIAN_POINT ( 'NONE',  ( 3.049999999999999822, 0.2500000000000000000, 0.000000000000000000 ) ) ;
#440 = EDGE_CURVE ( 'NONE', #674, #2, #59, .T. ) ;
#441 = ORIENTED_EDGE ( 'NONE', *, *, #569, .F. ) ;
#442 = AXIS2_PLACEMENT_3D ( 'NONE', #692, #185, #375 ) ;
#443 = APPROVAL_ROLE ( '' ) ;
#444 = CARTESIAN_POINT ( 'NONE',  ( 0.1250000000000000000, 0.000000000000000000, -0.1250000000000000000 ) ) ;
#445 = ORIENTED_EDGE ( 'NONE', *, *, #548, .T. ) ;
#446 = EDGE_CURVE ( 'NONE', #586, #216, #602, .T. ) ;
#447 = LINE ( 'NONE', #559, #555 ) ;
#448 = CYLINDRICAL_SURFACE ( 'NONE', #512, 0.08267716535433063119 ) ;
#449 = ORIENTED_EDGE ( 'NONE', *, *, #118, .F. ) ;
#450 = LINE ( 'NONE', #671, #101 ) ;
#451 = FACE_OUTER_BOUND ( 'NONE', #50, .T. ) ;
#452 = VERTEX_POINT ( 'NONE', #1 ) ;
#453 = EDGE_CURVE ( 'NONE', #470, #455, #230, .T. ) ;
#454 = LINE ( 'NONE', #717, #538 ) ;
#455 = VERTEX_POINT ( 'NONE', #628 ) ;
#456 = DATE_AND_TIME ( #160, #397 ) ;
#457 = CARTESIAN_POINT ( 'NONE',  ( 0.2999999999999999889, 0.2500000000000000000, -1.287304747123747095 ) ) ;
#458 = EDGE_LOOP ( 'NONE', ( #4, #121, #660, #37 ) ) ;
#459 = AXIS2_PLACEMENT_3D ( 'NONE', #192, #369, #699 ) ;
#460 = ORIENTED_EDGE ( 'NONE', *, *, #606, .T. ) ;
#461 = DIRECTION ( 'NONE',  ( 0.000000000000000000, 0.000000000000000000, 1.000000000000000000 ) ) ;
#462 = EDGE_LOOP ( 'NONE', ( #390, #227 ) ) ;
#463 = EDGE_CURVE ( 'NONE', #301, #498, #115, .T. ) ;
#464 = LINE ( 'NONE', #688, #189 ) ;
#465 = ORIENTED_EDGE ( 'NONE', *, *, #229, .F. ) ;
#466 = PERSON_AND_ORGANIZATION ( #232, #619 ) ;
#467 = LINE ( 'NONE', #3, #155 ) ;
#468 = FACE_OUTER_BOUND ( 'NONE', #609, .T. ) ;
#469 = CARTESIAN_POINT ( 'NONE',  ( 2.750000000000000000, 0.2500000000000000000, 0.000000000000000000 ) ) ;
#470 = VERTEX_POINT ( 'NONE', #408 ) ;
#471 = VECTOR ( 'NONE', #62, 39.37007874015748143 ) ;
#472 = EDGE_CURVE ( 'NONE', #470, #571, #570, .T. ) ;
#473 = CARTESIAN_POINT ( 'NONE',  ( 0.9188036795353059505, 0.2500000000000000000, -1.196303662848225799E-16 ) ) ;
#474 = CC_DESIGN_PERSON_AND_ORGANIZATION_ASSIGNMENT ( #572, #623, ( #710 ) ) ;
#475 = LINE ( 'NONE', #78, #626 ) ;
#476 = CARTESIAN_POINT ( 'NONE',  ( 2.164662230530878251, 0.2500000000000000000, -1.287304747123747095 ) ) ;
#477 = CARTESIAN_POINT ( 'NONE',  ( 2.925000000000000266, 0.2500000000000000000, -0.1250000000000000000 ) ) ;
#478 = ORIENTED_EDGE ( 'NONE', *, *, #187, .F. ) ;
#479 = DIRECTION ( 'NONE',  ( 0.000000000000000000, 0.000000000000000000, -1.000000000000000000 ) ) ;
#480 = AXIS2_PLACEMENT_3D ( 'NONE', #178, #297, #14 ) ;
#481 = LINE ( 'NONE', #311, #233 ) ;
#482 = ORIENTED_EDGE ( 'NONE', *, *, #220, .F. ) ;
#483 = EDGE_CURVE ( 'NONE', #562, #166, #467, .T. ) ;
#484 =( GEOMETRIC_REPRESENTATION_CONTEXT ( 3 ) GLOBAL_UNCERTAINTY_ASSIGNED_CONTEXT ( ( #205 ) ) GLOBAL_UNIT_ASSIGNED_CONTEXT ( ( #563, #54, #491 ) ) REPRESENTATION_CONTEXT ( 'NONE', 'WORKASPACE' ) );
#485 = DIRECTION ( 'NONE',  ( 0.000000000000000000, 0.000000000000000000, 1.000000000000000000 ) ) ;
#486 = CARTESIAN_POINT ( 'NONE',  ( 0.3000000000000000999, 0.000000000000000000, -0.2999999999999999889 ) ) ;
#487 = VERTEX_POINT ( 'NONE', #635 ) ;
#488 = DIRECTION ( 'NONE',  ( 0.000000000000000000, 0.000000000000000000, -1.000000000000000000 ) ) ;
#489 = DIRECTION ( 'NONE',  ( 0.000000000000000000, 0.000000000000000000, -1.000000000000000000 ) ) ;
#490 = VERTEX_POINT ( 'NONE', #234 ) ;
#491 =( NAMED_UNIT ( * ) SI_UNIT ( $, .STERADIAN. ) SOLID_ANGLE_UNIT ( ) );
#492 = EDGE_CURVE ( 'NONE', #503, #487, #578, .T. ) ;
#493 = DIRECTION ( 'NONE',  ( -1.000000000000000000, 0.000000000000000000, 0.000000000000000000 ) ) ;
#494 = EDGE_LOOP ( 'NONE', ( #219, #171 ) ) ;
#495 = LINE ( 'NONE', #102, #34 ) ;
#496 = EDGE_CURVE ( 'NONE', #707, #177, #661, .T. ) ;
#497 = CARTESIAN_POINT ( 'NONE',  ( 2.164662230530878251, 0.000000000000000000, -2.336382864352714694 ) ) ;
#498 = VERTEX_POINT ( 'NONE', #128 ) ;
#499 = DIRECTION ( 'NONE',  ( -0.000000000000000000, 1.000000000000000000, -0.000000000000000000 ) ) ;
#500 = LINE ( 'NONE', #332, #726 ) ;
#501 = VERTEX_POINT ( 'NONE', #7 ) ;
#502 = CARTESIAN_POINT ( 'NONE',  ( 0.000000000000000000, 0.000000000000000000, 0.000000000000000000 ) ) ;
#503 = VERTEX_POINT ( 'NONE', #239 ) ;
#504 = EDGE_CURVE ( 'NONE', #32, #498, #464, .T. ) ;
#505 = LINE ( 'NONE', #98, #167 ) ;
#506 = DIRECTION ( 'NONE',  ( -0.000000000000000000, -1.000000000000000000, -0.000000000000000000 ) ) ;
#507 = ORIENTED_EDGE ( 'NONE', *, *, #483, .T. ) ;
#508 = LINE ( 'NONE', #124, #195 ) ;
#509 = VERTEX_POINT ( 'NONE', #12 ) ;
#510 = CARTESIAN_POINT ( 'NONE',  ( 0.9188036795353056174, 0.2500000000000000000, -2.336382864352714694 ) ) ;
#511 = ORIENTED_EDGE ( 'NONE', *, *, #16, .F. ) ;
#512 = AXIS2_PLACEMENT_3D ( 'NONE', #444, #612, #218 ) ;
#513 = VECTOR ( 'NONE', #199, 39.37007874015748143 ) ;
#514 = PERSON_AND_ORGANIZATION_ROLE ( 'creator' ) ;
#515 = CARTESIAN_POINT ( 'NONE',  ( 3.049999999999999822, 0.2500000000000000000, 0.000000000000000000 ) ) ;
#516 = EDGE_CURVE ( 'NONE', #501, #601, #696, .T. ) ;
#517 = DIRECTION ( 'NONE',  ( 0.000000000000000000, 0.000000000000000000, -1.000000000000000000 ) ) ;
#518 = CIRCLE ( 'NONE', #330, 0.08267716535433035363 ) ;
#519 = DIRECTION ( 'NONE',  ( 0.000000000000000000, 0.000000000000000000, 1.000000000000000000 ) ) ;
#520 = LOCAL_TIME ( 18, 56, 27.00000000000000000, #122 ) ;
#521 = DIRECTION ( 'NONE',  ( 0.000000000000000000, 0.000000000000000000, 1.000000000000000000 ) ) ;
#522 = PERSON_AND_ORGANIZATION ( #232, #619 ) ;
#523 = CYLINDRICAL_SURFACE ( 'NONE', #95, 0.08267716535433035363 ) ;
#524 = ORIENTED_EDGE ( 'NONE', *, *, #169, .F. ) ;
#525 = ADVANCED_FACE ( 'NONE', ( #422 ), #26, .T. ) ;
#526 = AXIS2_PLACEMENT_3D ( 'NONE', #477, #254, #84 ) ;
#527 = CARTESIAN_POINT ( 'NONE',  ( 0.9188036795353057284, 0.000000000000000000, -1.287304747123747095 ) ) ;
#528 = FACE_BOUND ( 'NONE', #278, .T. ) ;
#529 = CYLINDRICAL_SURFACE ( 'NONE', #8, 0.08267716535433089486 ) ;
#530 = VECTOR ( 'NONE', #479, 39.37007874015748143 ) ;
#531 = CARTESIAN_POINT ( 'NONE',  ( 0.1250000000000000278, 0.000000000000000000, -0.2076771653543306451 ) ) ;
#532 = ORIENTED_EDGE ( 'NONE', *, *, #273, .T. ) ;
#533 = CARTESIAN_POINT ( 'NONE',  ( 2.925000000000000266, 0.000000000000000000, -0.2076771653543308949 ) ) ;
#534 = EDGE_CURVE ( 'NONE', #301, #146, #599, .T. ) ;
#535 = PLANE ( 'NONE',  #459 ) ;
#536 = ORIENTED_EDGE ( 'NONE', *, *, #57, .F. ) ;
#537 = DIRECTION ( 'NONE',  ( 0.000000000000000000, 0.000000000000000000, 1.000000000000000000 ) ) ;
#538 = VECTOR ( 'NONE', #43, 39.37007874015748143 ) ;
#539 = CARTESIAN_POINT ( 'NONE',  ( 0.000000000000000000, 0.2500000000000000000, -1.287304747123747095 ) ) ;
#540 = ORIENTED_EDGE ( 'NONE', *, *, #94, .F. ) ;
#541 = LINE ( 'NONE', #473, #615 ) ;
#542 = CARTESIAN_POINT ( 'NONE',  ( 2.164662230530878251, 0.2500000000000000000, -1.287304747123747095 ) ) ;
#543 = ORIENTED_EDGE ( 'NONE', *, *, #606, .F. ) ;
#544 = EDGE_CURVE ( 'NONE', #498, #2, #372, .T. ) ;
#545 =( LENGTH_UNIT ( ) NAMED_UNIT ( * ) SI_UNIT ( $, .METRE. ) );
#546 = CARTESIAN_POINT ( 'NONE',  ( 3.049999999999999822, 0.2500000000000000000, 0.000000000000000000 ) ) ;
#547 = ORIENTED_EDGE ( 'NONE', *, *, #16, .T. ) ;
#548 = EDGE_CURVE ( 'NONE', #60, #575, #249, .T. ) ;
#549 = PRODUCT_RELATED_PRODUCT_CATEGORY ( 'detail', '', ( #378 ) ) ;
#550 = PERSON_AND_ORGANIZATION ( #232, #619 ) ;
#551 = DIRECTION ( 'NONE',  ( 0.000000000000000000, 1.000000000000000000, -0.000000000000000000 ) ) ;
#552 = VECTOR ( 'NONE', #36, 39.37007874015748143 ) ;
#553 = ORIENTED_EDGE ( 'NONE', *, *, #690, .F. ) ;
#554 = DIRECTION ( 'NONE',  ( -0.000000000000000000, 1.000000000000000000, -0.000000000000000000 ) ) ;
#555 = VECTOR ( 'NONE', #164, 39.37007874015748143 ) ;
#556 = DIRECTION ( 'NONE',  ( 0.000000000000000000, 0.000000000000000000, 1.000000000000000000 ) ) ;
#557 = ORIENTED_EDGE ( 'NONE', *, *, #187, .T. ) ;
#558 = LOCAL_TIME ( 18, 56, 27.00000000000000000, #566 ) ;
#559 = CARTESIAN_POINT ( 'NONE',  ( 0.9188036795353056174, 0.2500000000000000000, -2.336382864352714694 ) ) ;
#560 = DIRECTION ( 'NONE',  ( -0.000000000000000000, 1.000000000000000000, -0.000000000000000000 ) ) ;
#561 = EDGE_CURVE ( 'NONE', #455, #664, #588, .T. ) ;
#562 = VERTEX_POINT ( 'NONE', #368 ) ;
#563 =( CONVERSION_BASED_UNIT ( 'INCH', #393 ) LENGTH_UNIT ( ) NAMED_UNIT ( #345 ) );
#564 = FACE_OUTER_BOUND ( 'NONE', #374, .T. ) ;
#565 = VERTEX_POINT ( 'NONE', #476 ) ;
#566 = COORDINATED_UNIVERSAL_TIME_OFFSET ( 6, 0, .BEHIND. ) ;
#567 = DIRECTION ( 'NONE',  ( 0.000000000000000000, 0.000000000000000000, -1.000000000000000000 ) ) ;
#568 = ORIENTED_EDGE ( 'NONE', *, *, #614, .F. ) ;
#569 = EDGE_CURVE ( 'NONE', #452, #503, #130, .T. ) ;
#570 = LINE ( 'NONE', #352, #471 ) ;
#571 = VERTEX_POINT ( 'NONE', #86 ) ;
#572 = PERSON_AND_ORGANIZATION ( #232, #619 ) ;
#573 = EDGE_CURVE ( 'NONE', #106, #201, #593, .T. ) ;
#574 = CARTESIAN_POINT ( 'NONE',  ( 0.1250000000000000000, 0.000000000000000000, -0.1250000000000000000 ) ) ;
#575 = VERTEX_POINT ( 'NONE', #138 ) ;
#576 = AXIS2_PLACEMENT_3D ( 'NONE', #439, #270, #720 ) ;
#577 = APPROVAL_ROLE ( '' ) ;
#578 = LINE ( 'NONE', #69, #279 ) ;
#579 = DIRECTION ( 'NONE',  ( 0.000000000000000000, 1.000000000000000000, 0.000000000000000000 ) ) ;
#580 = AXIS2_PLACEMENT_3D ( 'NONE', #83, #299, #485 ) ;
#581 = LINE ( 'NONE', #639, #423 ) ;
#582 = APPROVAL_PERSON_ORGANIZATION ( #522, #682, #184 ) ;
#583 = LINE ( 'NONE', #74, #513 ) ;
#584 = EDGE_CURVE ( 'NONE', #252, #305, #80, .T. ) ;
#585 = DIRECTION ( 'NONE',  ( 0.000000000000000000, 0.000000000000000000, 1.000000000000000000 ) ) ;
#586 = VERTEX_POINT ( 'NONE', #307 ) ;
#587 = CIRCLE ( 'NONE', #268, 0.08267716535433063119 ) ;
#588 = LINE ( 'NONE', #428, #343 ) ;
#589 = FACE_OUTER_BOUND ( 'NONE', #605, .T. ) ;
#590 = ORIENTED_EDGE ( 'NONE', *, *, #420, .T. ) ;
#591 = DESIGN_CONTEXT ( 'detailed design', #387, 'design' ) ;
#592 = EDGE_CURVE ( 'NONE', #575, #60, #238, .T. ) ;
#593 = LINE ( 'NONE', #433, #117 ) ;
#594 = FACE_BOUND ( 'NONE', #462, .T. ) ;
#595 = ORIENTED_EDGE ( 'NONE', *, *, #516, .F. ) ;
#596 = CARTESIAN_POINT ( 'NONE',  ( 3.049999999999999822, 0.000000000000000000, 0.000000000000000000 ) ) ;
#597 = CARTESIAN_POINT ( 'NONE',  ( 0.000000000000000000, 0.2500000000000000000, 0.000000000000000000 ) ) ;
#598 = ORIENTED_EDGE ( 'NONE', *, *, #169, .T. ) ;
#599 = LINE ( 'NONE', #77, #156 ) ;
#600 = PLANE ( 'NONE',  #324 ) ;
#601 = VERTEX_POINT ( 'NONE', #533 ) ;
#602 = CIRCLE ( 'NONE', #381, 0.08267716535433089486 ) ;
#603 = DIRECTION ( 'NONE',  ( -0.000000000000000000, 1.000000000000000000, -0.000000000000000000 ) ) ;
#604 = CARTESIAN_POINT ( 'NONE',  ( 0.000000000000000000, 0.2500000000000000000, 0.000000000000000000 ) ) ;
#605 = EDGE_LOOP ( 'NONE', ( #40, #540, #224, #724 ) ) ;
#606 = EDGE_CURVE ( 'NONE', #407, #44, #705, .T. ) ;
#607 = CC_DESIGN_DATE_AND_TIME_ASSIGNMENT ( #114, #336, ( #687 ) ) ;
#608 = LINE ( 'NONE', #108, #221 ) ;
#609 = EDGE_LOOP ( 'NONE', ( #622, #293, #465, #110 ) ) ;
#610 = CARTESIAN_POINT ( 'NONE',  ( 0.1250000000000000000, 0.000000000000000000, -0.1250000000000000000 ) ) ;
#611 = VECTOR ( 'NONE', #560, 39.37007874015748143 ) ;
#612 = DIRECTION ( 'NONE',  ( -0.000000000000000000, 1.000000000000000000, -0.000000000000000000 ) ) ;
#613 = EDGE_LOOP ( 'NONE', ( #650, #553, #618, #316 ) ) ;
#614 = EDGE_CURVE ( 'NONE', #571, #664, #643, .T. ) ;
#615 = VECTOR ( 'NONE', #418, 39.37007874015748143 ) ;
#616 = CARTESIAN_POINT ( 'NONE',  ( 2.925000000000000266, 0.000000000000000000, -0.2076771653543308949 ) ) ;
#617 = APPLICATION_CONTEXT ( 'configuration controlled 3d designs of mechanical parts and assemblies' ) ;
#618 = ORIENTED_EDGE ( 'NONE', *, *, #638, .T. ) ;
#619 = ORGANIZATION ( 'UNSPECIFIED', 'UNSPECIFIED', '' ) ;
#620 = DIRECTION ( 'NONE',  ( 0.000000000000000000, 0.000000000000000000, 1.000000000000000000 ) ) ;
#621 = LINE ( 'NONE', #624, #256 ) ;
#622 = ORIENTED_EDGE ( 'NONE', *, *, #47, .T. ) ;
#623 = PERSON_AND_ORGANIZATION_ROLE ( 'design_supplier' ) ;
#624 = CARTESIAN_POINT ( 'NONE',  ( 0.000000000000000000, 0.2500000000000000000, 0.000000000000000000 ) ) ;
#625 = ORIENTED_EDGE ( 'NONE', *, *, #180, .T. ) ;
#626 = VECTOR ( 'NONE', #373, 39.37007874015748143 ) ;
#627 = EDGE_CURVE ( 'NONE', #437, #670, #652, .T. ) ;
#628 = CARTESIAN_POINT ( 'NONE',  ( 0.2999999999999999889, 0.000000000000000000, -1.287304747123747095 ) ) ;
#629 = ORIENTED_EDGE ( 'NONE', *, *, #211, .T. ) ;
#630 = ADVANCED_FACE ( 'NONE', ( #310 ), #529, .F. ) ;
#631 = SECURITY_CLASSIFICATION_LEVEL ( 'unclassified' ) ;
#632 = DIRECTION ( 'NONE',  ( 1.000000000000000000, 0.000000000000000000, 0.000000000000000000 ) ) ;
#633 = ORIENTED_EDGE ( 'NONE', *, *, #453, .F. ) ;
#634 = PERSON_AND_ORGANIZATION_ROLE ( 'creator' ) ;
#635 = CARTESIAN_POINT ( 'NONE',  ( 2.750000000000000000, 0.000000000000000000, -0.2999999999999999889 ) ) ;
#636 = ORIENTED_EDGE ( 'NONE', *, *, #57, .T. ) ;
#637 = CALENDAR_DATE ( 2026, 3, 5 ) ;
#638 = EDGE_CURVE ( 'NONE', #437, #571, #541, .T. ) ;
#639 = CARTESIAN_POINT ( 'NONE',  ( 2.750000000000000000, 0.000000000000000000, -0.000000000000000000 ) ) ;
#640 = ORIENTED_EDGE ( 'NONE', *, *, #302, .F. ) ;
#641 = CARTESIAN_POINT ( 'NONE',  ( 2.925000000000000266, 0.000000000000000000, -0.1250000000000000000 ) ) ;
#642 = CARTESIAN_POINT ( 'NONE',  ( 0.000000000000000000, 0.000000000000000000, 0.000000000000000000 ) ) ;
#643 = LINE ( 'NONE', #134, #45 ) ;
#644 = DIRECTION ( 'NONE',  ( 0.000000000000000000, 1.000000000000000000, -0.000000000000000000 ) ) ;
#645 = VERTEX_POINT ( 'NONE', #250 ) ;
#646 = ADVANCED_FACE ( 'NONE', ( #708 ), #202, .T. ) ;
#647 = AXIS2_PLACEMENT_3D ( 'NONE', #539, #31, #203 ) ;
#648 = DIRECTION ( 'NONE',  ( 0.000000000000000000, 0.000000000000000000, 1.000000000000000000 ) ) ;
#649 = FACE_OUTER_BOUND ( 'NONE', #313, .T. ) ;
#650 = ORIENTED_EDGE ( 'NONE', *, *, #410, .F. ) ;
#651 = CC_DESIGN_PERSON_AND_ORGANIZATION_ASSIGNMENT ( #550, #42, ( #378 ) ) ;
#652 = LINE ( 'NONE', #144, #291 ) ;
#653 = FACE_OUTER_BOUND ( 'NONE', #150, .T. ) ;
#654 = EDGE_LOOP ( 'NONE', ( #204, #70, #309, #126 ) ) ;
#655 = DIRECTION ( 'NONE',  ( 0.000000000000000000, 0.000000000000000000, -1.000000000000000000 ) ) ;
#656 = CARTESIAN_POINT ( 'NONE',  ( 0.000000000000000000, 0.2500000000000000000, -2.500000000000000000 ) ) ;
#657 = EDGE_LOOP ( 'NONE', ( #213, #633, #415, #507 ) ) ;
#658 = CARTESIAN_POINT ( 'NONE',  ( 0.000000000000000000, 0.000000000000000000, 0.000000000000000000 ) ) ;
#659 = DIRECTION ( 'NONE',  ( -0.000000000000000000, -1.000000000000000000, -0.000000000000000000 ) ) ;
#660 = ORIENTED_EDGE ( 'NONE', *, *, #317, .T. ) ;
#661 = CIRCLE ( 'NONE', #340, 0.08267716535433063119 ) ;
#662 = DIRECTION ( 'NONE',  ( 0.000000000000000000, 0.000000000000000000, 1.000000000000000000 ) ) ;
#663 = AXIS2_PLACEMENT_3D ( 'NONE', #193, #362, #648 ) ;
#664 = VERTEX_POINT ( 'NONE', #527 ) ;
#665 = COORDINATED_UNIVERSAL_TIME_OFFSET ( 6, 0, .BEHIND. ) ;
#666 = DIRECTION ( 'NONE',  ( 0.000000000000000000, 0.000000000000000000, 1.000000000000000000 ) ) ;
#667 = ORIENTED_EDGE ( 'NONE', *, *, #463, .F. ) ;
#668 = EDGE_CURVE ( 'NONE', #601, #501, #672, .T. ) ;
#669 = DIRECTION ( 'NONE',  ( -0.000000000000000000, -1.000000000000000000, -0.000000000000000000 ) ) ;
#670 = VERTEX_POINT ( 'NONE', #73 ) ;
#671 = CARTESIAN_POINT ( 'NONE',  ( 0.000000000000000000, 0.2500000000000000000, -2.500000000000000000 ) ) ;
#672 = CIRCLE ( 'NONE', #200, 0.08267716535433089486 ) ;
#673 = DIRECTION ( 'NONE',  ( -1.037615792498257411E-16, 0.000000000000000000, -1.000000000000000000 ) ) ;
#674 = VERTEX_POINT ( 'NONE', #222 ) ;
#675 = CC_DESIGN_APPROVAL ( #255, ( #392 ) ) ;
#676 = PERSON_AND_ORGANIZATION ( #232, #619 ) ;
#677 = ADVANCED_FACE ( 'NONE', ( #217 ), #722, .F. ) ;
#678 = DIRECTION ( 'NONE',  ( 0.000000000000000000, 0.000000000000000000, 1.000000000000000000 ) ) ;
#679 = EDGE_LOOP ( 'NONE', ( #287, #377, #231, #382 ) ) ;
#680 = DIRECTION ( 'NONE',  ( -0.000000000000000000, -1.000000000000000000, -0.000000000000000000 ) ) ;
#681 = EDGE_CURVE ( 'NONE', #201, #146, #450, .T. ) ;
#682 = APPROVAL ( #6, 'UNSPECIFIED' ) ;
#683 = CARTESIAN_POINT ( 'NONE',  ( 0.3000000000000000999, 0.2500000000000000000, -3.112847377494773589E-17 ) ) ;
#684 = VECTOR ( 'NONE', #357, 39.37007874015748143 ) ;
#685 = FACE_OUTER_BOUND ( 'NONE', #322, .T. ) ;
#686 = CARTESIAN_POINT ( 'NONE',  ( 2.925000000000000266, 0.000000000000000000, -2.375000000000000000 ) ) ;
#687 = SECURITY_CLASSIFICATION ( '', '', #631 ) ;
#688 = CARTESIAN_POINT ( 'NONE',  ( 0.000000000000000000, 0.000000000000000000, 0.000000000000000000 ) ) ;
#689 = ORIENTED_EDGE ( 'NONE', *, *, #302, .T. ) ;
#690 = EDGE_CURVE ( 'NONE', #437, #196, #447, .T. ) ;
#691 = DATE_AND_TIME ( #119, #558 ) ;
#692 = CARTESIAN_POINT ( 'NONE',  ( 2.925000000000000266, 0.000000000000000000, -0.1250000000000000000 ) ) ;
#693 = ORIENTED_EDGE ( 'NONE', *, *, #10, .F. ) ;
#694 = FACE_OUTER_BOUND ( 'NONE', #365, .T. ) ;
#695 = ORIENTED_EDGE ( 'NONE', *, *, #544, .F. ) ;
#696 = CIRCLE ( 'NONE', #442, 0.08267716535433089486 ) ;
#697 = CARTESIAN_POINT ( 'NONE',  ( 2.750000000000000000, 0.2500000000000000000, 0.000000000000000000 ) ) ;
#698 = ADVANCED_FACE ( 'NONE', ( #151 ), #51, .F. ) ;
#699 = DIRECTION ( 'NONE',  ( -1.000000000000000000, 0.000000000000000000, -0.000000000000000000 ) ) ;
#700 = DIRECTION ( 'NONE',  ( 0.000000000000000000, 0.000000000000000000, -1.000000000000000000 ) ) ;
#701 = DIRECTION ( 'NONE',  ( -0.000000000000000000, -1.000000000000000000, -0.000000000000000000 ) ) ;
#702 = ADVANCED_FACE ( 'NONE', ( #265 ), #325, .F. ) ;
#703 = ORIENTED_EDGE ( 'NONE', *, *, #573, .T. ) ;
#704 = AXIS2_PLACEMENT_3D ( 'NONE', #348, #244, #461 ) ;
#705 = LINE ( 'NONE', #198, #260 ) ;
#706 = DIRECTION ( 'NONE',  ( -0.000000000000000000, 1.000000000000000000, -0.000000000000000000 ) ) ;
#707 = VERTEX_POINT ( 'NONE', #38 ) ;
#708 = FACE_OUTER_BOUND ( 'NONE', #679, .T. ) ;
#709 = LINE ( 'NONE', #304, #300 ) ;
#710 = PRODUCT_DEFINITION_FORMATION_WITH_SPECIFIED_SOURCE ( 'ANY', '', #378, .NOT_KNOWN. ) ;
#711 = ORIENTED_EDGE ( 'NONE', *, *, #573, .F. ) ;
#712 = EDGE_CURVE ( 'NONE', #177, #60, #495, .T. ) ;
#713 = DIRECTION ( 'NONE',  ( -1.000000000000000000, 0.000000000000000000, -0.000000000000000000 ) ) ;
#714 = CARTESIAN_POINT ( 'NONE',  ( 0.000000000000000000, 0.2500000000000000000, -2.500000000000000000 ) ) ;
#715 = ORIENTED_EDGE ( 'NONE', *, *, #159, .F. ) ;
#716 = AXIS2_PLACEMENT_3D ( 'NONE', #194, #251, #248 ) ;
#717 = CARTESIAN_POINT ( 'NONE',  ( 0.000000000000000000, 0.2500000000000000000, -1.287304747123747095 ) ) ;
#718 = ORIENTED_EDGE ( 'NONE', *, *, #496, .T. ) ;
#719 = PERSON_AND_ORGANIZATION ( #232, #619 ) ;
#720 = DIRECTION ( 'NONE',  ( 0.000000000000000000, 0.000000000000000000, 1.000000000000000000 ) ) ;
#721 = ORIENTED_EDGE ( 'NONE', *, *, #472, .F. ) ;
#722 = CYLINDRICAL_SURFACE ( 'NONE', #354, 0.08267716535433063119 ) ;
#723 = LINE ( 'NONE', #319, #288 ) ;
#724 = ORIENTED_EDGE ( 'NONE', *, *, #351, .T. ) ;
#725 = EDGE_CURVE ( 'NONE', #490, #509, #505, .T. ) ;
#726 = VECTOR ( 'NONE', #48, 39.37007874015748143 ) ;
#727 = EDGE_LOOP ( 'NONE', ( #730, #209, #536, #93, #333, #100, #79, #190 ) ) ;
#728 = APPLICATION_PROTOCOL_DEFINITION ( 'international standard', 'config_control_design', 1994, #617 ) ;
#729 = FACE_OUTER_BOUND ( 'NONE', #657, .T. ) ;
#730 = ORIENTED_EDGE ( 'NONE', *, *, #47, .F. ) ;
ENDSEC;
END-ISO-10303-21;
